<svg id="SvgjsSvg1001" width="288" height="288" xmlns="http://www.w3.org/2000/svg" version="1.1" xmlns:xlink="http://www.w3.org/1999/xlink" xmlns:svgjs="http://svgjs.com/svgjs"><defs id="SvgjsDefs1002"></defs><g id="SvgjsG1008"><svg xmlns="http://www.w3.org/2000/svg" enable-background="new 0 0 800 800" viewBox="0 0 800 800" width="288" height="288"><path fill="#f3e88e" d="M455.363,178.214c-0.214,0-0.387-0.173-0.387-0.387V69.348c0-0.214,0.173-0.387,0.387-0.387h258.766
		c0.214,0,0.387,0.173,0.387,0.387v108.479c0,0.214-0.173,0.387-0.387,0.387h-88.083h-82.6H455.363z" class="colorBFC6E4 svgShape"></path><rect width="45.3" height="36.774" x="562.096" y="196.864" fill="#ffbf0b" class="color787EBB svgShape"></rect><polygon fill="#f3e88e" points="155.099 172.706 177.82 185.745 218.476 166.928 257.087 185.736 282.048 172.247 282.048 341.327 155.099 341.327" class="colorBFC6E4 svgShape"></polygon><path fill="#f3e88e" d="M86.04,256.973c0-2.584,2.104-4.685,4.685-4.685h45.724v89.039c-0.05,0-0.1,0-0.15,0
		c-12.001,0-12.021,18.65,0,18.65c54.851,0,109.701,0,164.552,0c12,0,12.02-18.65,0-18.65c-0.051,0-0.102,0-0.152,0v-89.039h242.747
		h82.6h83.233c2.582,0,4.681,2.101,4.681,4.685v327.287H86.04V256.973z" class="colorBFC6E4 svgShape"></path><rect width="664.874" height="128.128" x="67.563" y="602.911" fill="#ffbf0b" class="color787EBB svgShape"></rect><path fill="#886c21" d="M733.953,584.261h-1.343V256.973c0-12.867-10.468-23.335-23.331-23.335h-83.233v-36.774h88.083
			c10.495,0,19.037-8.54,19.037-19.037V69.348c0-10.498-8.542-19.037-19.037-19.037H455.363c-10.495,0-19.037,8.54-19.037,19.037
			v108.479c0,10.497,8.542,19.037,19.037,19.037h88.083v36.774H300.698v-92.672l-44.057,23.811l-37.965-18.493l-39.937,18.484
			l-42.291-24.262v93.132H90.725c-12.867,0-23.335,10.468-23.335,23.335v327.287h-1.339c-9.448,0-17.138,7.688-17.138,17.136
			v131.156c0,9.448,7.69,17.136,17.138,17.136h667.902c9.448,0,17.134-7.688,17.134-17.136V601.397
			C751.087,591.949,743.401,584.261,733.953,584.261z M455.363,178.214c-0.214,0-0.387-0.173-0.387-0.387V69.348
			c0-0.214,0.173-0.387,0.387-0.387h258.766c0.214,0,0.387,0.173,0.387,0.387v108.479c0,0.214-0.173,0.387-0.387,0.387h-88.083
			h-82.6H455.363z M562.096,196.864h45.3v36.774h-45.3V196.864z M155.099,172.706l22.721,13.038l40.656-18.816l38.611,18.807
			l24.961-13.489v169.08H155.099V172.706z M86.04,256.973c0-2.584,2.104-4.685,4.685-4.685h45.724v89.039c-0.05,0-0.1,0-0.15,0
			c-12.001,0-12.021,18.65,0,18.65c54.851,0,109.701,0,164.552,0c12,0,12.02-18.65,0-18.65c-0.051,0-0.102,0-0.152,0v-89.039
			h242.747h82.6h83.233c2.582,0,4.681,2.101,4.681,4.685v327.287H86.04V256.973z M732.437,731.039H67.563V602.911h664.874V731.039z" class="color1D1751 svgShape"></path><path fill="#886c21" d="M703.733 154.728V94.885c0-8.749-7.117-15.866-15.868-15.866H479.664c-8.751 0-15.868 7.117-15.868 15.866v59.843c0 8.749 7.117 15.866 15.868 15.866h208.202C696.617 170.594 703.733 163.477 703.733 154.728zM685.083 151.944H482.446V97.669h202.638V151.944zM636.905 289.352H409.152c-17.607 0-31.932 14.324-31.932 31.932v40.121c0 17.607 14.324 31.932 31.932 31.932h227.753c17.607 0 31.932-14.324 31.932-31.932v-40.121C668.837 303.676 654.513 289.352 636.905 289.352zM650.187 361.404c0 7.324-5.96 13.282-13.282 13.282H409.152c-7.322 0-13.282-5.958-13.282-13.282v-40.121c0-7.324 5.96-13.282 13.282-13.282h227.753c7.322 0 13.282 5.958 13.282 13.282V361.404z" class="color1D1751 svgShape"></path><rect width="38.971" height="14.901" x="395.87" y="444.374" fill="#ffbf0b" class="color787EBB svgShape"></rect><path fill="#886c21" d="M437.655,425.724h-44.599c-8.733,0-15.836,7.105-15.836,15.838v20.524
				c0,8.733,7.103,15.839,15.836,15.839h44.599c8.733,0,15.836-7.105,15.836-15.839v-20.524
				C453.492,432.829,446.388,425.724,437.655,425.724z M434.841,459.274H395.87v-14.901h38.971V459.274z" class="color1D1751 svgShape"></path><rect width="38.971" height="14.901" x="609.732" y="519.998" fill="#ffbf0b" class="color787EBB svgShape"></rect><path fill="#886c21" d="M651.517,501.348h-44.599c-8.733,0-15.836,7.105-15.836,15.839v20.524
				c0,8.733,7.103,15.838,15.836,15.838h44.599c8.733,0,15.836-7.105,15.836-15.838v-20.524
				C667.353,508.454,660.25,501.348,651.517,501.348z M648.703,534.899h-38.971v-14.901h38.971V534.899z" class="color1D1751 svgShape"></path><rect width="38.971" height="14.901" x="502.803" y="519.998" fill="#ffbf0b" class="color787EBB svgShape"></rect><path fill="#886c21" d="M544.588,501.348h-44.599c-8.733,0-15.836,7.105-15.836,15.839v20.524
				c0,8.733,7.103,15.838,15.836,15.838h44.599c8.733,0,15.836-7.105,15.836-15.838v-20.524
				C560.424,508.454,553.321,501.348,544.588,501.348z M541.774,534.899h-38.971v-14.901h38.971V534.899z" class="color1D1751 svgShape"></path><rect width="38.971" height="14.901" x="395.87" y="519.998" fill="#ffbf0b" class="color787EBB svgShape"></rect><path fill="#886c21" d="M437.655,501.348h-44.599c-8.733,0-15.836,7.105-15.836,15.839v20.524
				c0,8.733,7.103,15.838,15.836,15.838h44.599c8.733,0,15.836-7.105,15.836-15.838v-20.524
				C453.492,508.454,446.388,501.348,437.655,501.348z M434.841,534.899H395.87v-14.901h38.971V534.899z" class="color1D1751 svgShape"></path><rect width="38.971" height="14.901" x="609.732" y="444.374" fill="#ffbf0b" class="color787EBB svgShape"></rect><path fill="#886c21" d="M651.517,425.724h-44.599c-8.733,0-15.836,7.105-15.836,15.838v20.524
				c0,8.733,7.103,15.839,15.836,15.839h44.599c8.733,0,15.836-7.105,15.836-15.839v-20.524
				C667.353,432.829,660.25,425.724,651.517,425.724z M648.703,459.274h-38.971v-14.901h38.971V459.274z" class="color1D1751 svgShape"></path><rect width="38.971" height="14.901" x="502.803" y="444.374" fill="#ffbf0b" class="color787EBB svgShape"></rect><path fill="#886c21" d="M544.588,425.724h-44.599c-8.733,0-15.836,7.105-15.836,15.838v20.524
				c0,8.733,7.103,15.839,15.836,15.839h44.599c8.733,0,15.836-7.105,15.836-15.839v-20.524
				C560.424,432.829,553.321,425.724,544.588,425.724z M541.774,459.274h-38.971v-14.901h38.971V459.274z" class="color1D1751 svgShape"></path><path fill="#83c9ef" d="M650.187,361.404c0,7.324-5.96,13.282-13.282,13.282H409.152c-7.322,0-13.282-5.958-13.282-13.282v-40.121
		c0-7.324,5.96-13.282,13.282-13.282h227.753c7.322,0,13.282,5.958,13.282,13.282V361.404z" class="color83C9EF svgShape"></path><rect width="202.638" height="54.275" x="482.446" y="97.669" fill="#83c9ef" class="color83C9EF svgShape"></rect><polygon fill="#ffbf0b" points="155.099 172.706 177.82 185.745 218.476 166.928 257.087 185.736 282.048 172.247 282.048 341.327 155.099 341.327" class="color787EBB svgShape"></polygon><g fill="#000000" class="color000 svgShape"><path fill="#886c21" d="M188.219,425.724H143.62c-8.733,0-15.836,7.105-15.836,15.838v20.524c0,8.733,7.103,15.839,15.836,15.839
				h44.599c8.733,0,15.836-7.105,15.836-15.839v-20.524C204.056,432.829,196.953,425.724,188.219,425.724z M185.405,459.274h-38.971
				v-14.901h38.971V459.274z" class="color1D1751 svgShape"></path><rect width="38.971" height="14.901" x="146.434" y="444.374" fill="#83c9ef" class="color83C9EF svgShape"></rect></g><g fill="#000000" class="color000 svgShape"><path fill="#886c21" d="M295.152,501.348h-44.599c-8.733,0-15.836,7.105-15.836,15.839v20.524
				c0,8.733,7.103,15.838,15.836,15.838h44.599c8.733,0,15.836-7.105,15.836-15.838v-20.524
				C310.989,508.454,303.886,501.348,295.152,501.348z M292.338,534.899h-38.971v-14.901h38.971V534.899z" class="color1D1751 svgShape"></path><rect width="38.971" height="14.901" x="253.367" y="519.998" fill="#83c9ef" class="color83C9EF svgShape"></rect></g><g fill="#000000" class="color000 svgShape"><path fill="#886c21" d="M188.219,501.348H143.62c-8.733,0-15.836,7.105-15.836,15.839v20.524c0,8.733,7.103,15.838,15.836,15.838
				h44.599c8.733,0,15.836-7.105,15.836-15.838v-20.524C204.056,508.454,196.953,501.348,188.219,501.348z M185.405,534.899h-38.971
				v-14.901h38.971V534.899z" class="color1D1751 svgShape"></path><rect width="38.971" height="14.901" x="146.434" y="519.998" fill="#83c9ef" class="color83C9EF svgShape"></rect></g><g fill="#000000" class="color000 svgShape"><path fill="#886c21" d="M295.152,425.724h-44.599c-8.733,0-15.836,7.105-15.836,15.838v20.524
				c0,8.733,7.103,15.839,15.836,15.839h44.599c8.733,0,15.836-7.105,15.836-15.839v-20.524
				C310.989,432.829,303.886,425.724,295.152,425.724z M292.338,459.274h-38.971v-14.901h38.971V459.274z" class="color1D1751 svgShape"></path><rect width="38.971" height="14.901" x="253.367" y="444.374" fill="#83c9ef" class="color83C9EF svgShape"></rect></g><g fill="#000000" class="color000 svgShape"><path fill="#886c21" d="M400,703.813c21.009,0,38.102-17.093,38.102-38.104c0-21.011-17.093-38.104-38.102-38.104
				s-38.102,17.093-38.102,38.104C361.898,686.72,378.991,703.813,400,703.813z M400,646.255c10.728,0,19.452,8.726,19.452,19.454
				c0,10.727-8.724,19.454-19.452,19.454c-10.727,0-19.451-8.726-19.451-19.454C380.549,654.982,389.273,646.255,400,646.255z" class="color1D1751 svgShape"></path><ellipse cx="400" cy="665.709" fill="#83c9ef" rx="19.451" ry="19.454" transform="translate(-3.612 2.184)" class="color83C9EF svgShape"></ellipse></g></svg></g></svg>