<?xml version="1.0" encoding="utf-8"?>
<!-- Generator: Adobe Illustrator 21.0.0, SVG Export Plug-In . SVG Version: 6.00 Build 0)  -->
<svg version="1.1" id="Layer_1" xmlns="http://www.w3.org/2000/svg" xmlns:xlink="http://www.w3.org/1999/xlink" x="0px" y="0px"
	 viewBox="0 0 128 128" style="enable-background:new 0 0 128 128;" xml:space="preserve">
<style type="text/css">
	.st0{fill:#CFF1FB;}
	.st1{fill:#91DEF5;}
	.st2{fill:#F6F7F7;}
	.st3{fill:#FFCFB8;}
	.st4{fill:#FFA77B;}
	.st5{fill:#E9EAEB;}
	.st6{fill:#746887;}
	.st7{fill:#F98770;}
	.st8{fill:#9B9B9B;}
	.st9{fill:#FFDDCF;}
	.st10{fill:#FFFFFF;}
	.st11{fill:#B7B7B7;}
	.st12{fill:#FFBC99;}
	.st13{fill:#DBDCDE;}
	.st14{fill:#FECFBA;}
	.st15{fill:#D0F1FA;}
	.st16{fill:#FDA77F;}
	.st17{fill:#94DEF4;}
</style>
<g>
	<g>
		<g>
			<path class="st3" d="M13.425,48.953V1.5L2.099,47.581c-0.216,0.876-0.074,1.803,0.393,2.575L47.7,124.858
				c0.973,1.608,3.065,2.123,4.673,1.149l22.848-13.834L14.422,51.359C13.784,50.721,13.425,49.855,13.425,48.953z"/>
		</g>
		<path class="st0" d="M63.272,2.497C62.634,1.859,61.769,1.5,60.866,1.5H13.425v47.453c0,0.903,0.358,1.768,0.997,2.407
			l61.731,61.747c1.329,1.329,3.483,1.329,4.812,0l44.038-44.049c1.329-1.329,1.329-3.484,0-4.813L63.272,2.497z"/>
		
			<ellipse transform="matrix(0.7072 -0.707 0.707 0.7072 -6.5444 32.6482)" class="st3" cx="36.145" cy="24.225" rx="8.637" ry="8.637"/>
	</g>
	<g>
		<path class="st6" d="M32.921,14.622c-0.785,0.263-1.209,1.113-0.946,1.899c0.263,0.785,1.11,1.208,1.898,0.946
			c2.591-0.869,5.395-0.212,7.317,1.711c1.348,1.348,2.09,3.141,2.09,5.047c0,1.906-0.742,3.699-2.09,5.047s-3.14,2.091-5.046,2.091
			c-1.906,0-3.698-0.743-5.046-2.091c-1.918-1.919-2.576-4.719-1.715-7.305c0.262-0.786-0.164-1.635-0.949-1.897
			c-0.787-0.262-1.634,0.164-1.896,0.95c-1.221,3.671-0.286,7.646,2.441,10.374c1.914,1.915,4.46,2.97,7.167,2.97
			c2.707,0,5.253-1.055,7.167-2.97c1.915-1.915,2.969-4.46,2.969-7.168c0-2.708-1.054-5.254-2.969-7.168
			C40.579,14.324,36.599,13.391,32.921,14.622z"/>
		<path class="st7" d="M15.482,50.299c-0.359-0.359-0.557-0.837-0.557-1.346V1.5c0-0.759-0.566-1.398-1.319-1.489
			c-0.753-0.092-1.455,0.395-1.636,1.131L0.643,47.223c-0.312,1.271-0.111,2.589,0.567,3.71l36.474,60.271
			c0.428,0.708,1.349,0.937,2.06,0.507c0.708-0.429,0.935-1.352,0.506-2.06L3.775,49.379c-0.263-0.436-0.341-0.947-0.22-1.441
			l8.371-34.055v35.069c0,1.31,0.51,2.542,1.436,3.467l59.446,59.462l-21.211,12.843c-0.898,0.541-2.07,0.255-2.614-0.643
			l-4.585-7.576c-0.429-0.709-1.35-0.938-2.06-0.507c-0.708,0.429-0.935,1.352-0.506,2.06l4.585,7.576
			c0.921,1.521,2.542,2.363,4.202,2.363c0.864,0,1.739-0.228,2.531-0.707l22.848-13.834c0.394-0.238,0.657-0.646,0.712-1.103
			c0.055-0.458-0.103-0.915-0.429-1.241L15.482,50.299z"/>
		<path class="st6" d="M78.241,15.349c-0.586-0.586-1.535-0.586-2.121,0c-0.586,0.585-0.586,1.536,0,2.121l47.822,47.835
			c0.359,0.359,0.557,0.837,0.557,1.346c0,0.508-0.198,0.986-0.557,1.346l-44.039,44.049c-0.719,0.721-1.972,0.721-2.691,0
			L15.482,50.299c-0.359-0.359-0.557-0.837-0.557-1.346V3h45.941c0.508,0,0.986,0.198,1.346,0.558l8.312,8.314
			c0.586,0.586,1.535,0.586,2.121,0c0.586-0.585,0.586-1.536,0-2.121l-8.312-8.314C63.406,0.51,62.175,0,60.866,0H13.425
			c-0.828,0-1.5,0.671-1.5,1.5v47.453c0,1.31,0.51,2.542,1.436,3.467l61.73,61.746c0.926,0.927,2.157,1.438,3.467,1.438
			c1.31,0,2.541-0.511,3.466-1.438l44.038-44.049c0.926-0.926,1.436-2.157,1.436-3.467c0-1.311-0.51-2.542-1.436-3.467
			L78.241,15.349z"/>
		<g>
			<path class="st7" d="M58.199,60.412l-13.417,1.917l1.917-13.42c0.117-0.82-0.453-1.58-1.273-1.697
				c-0.812-0.112-1.579,0.452-1.696,1.273l-2.199,15.399c-0.067,0.467,0.09,0.939,0.424,1.273c0.283,0.283,0.665,0.439,1.06,0.439
				c0.07,0,0.141-0.006,0.212-0.016l15.396-2.2c0.82-0.117,1.39-0.877,1.273-1.697C59.778,60.863,59.01,60.294,58.199,60.412z"/>
			<path class="st7" d="M75.794,29.612l-15.396,2.2c-0.82,0.117-1.389,0.877-1.272,1.697c0.117,0.82,0.878,1.385,1.696,1.272
				l13.417-1.917l-1.917,13.42c-0.117,0.82,0.453,1.58,1.273,1.697c0.072,0.01,0.143,0.015,0.214,0.015
				c0.734,0,1.376-0.54,1.483-1.288l2.199-15.399c0.067-0.467-0.09-0.939-0.424-1.272S76.263,29.543,75.794,29.612z"/>
			<path class="st7" d="M55.377,34.876c-0.342-0.755-1.231-1.086-1.986-0.745c-0.754,0.343-1.088,1.232-0.745,1.986l10.997,24.199
				c0.251,0.553,0.796,0.88,1.366,0.88c0.207,0,0.418-0.043,0.619-0.135c0.754-0.343,1.088-1.232,0.745-1.986L55.377,34.876z"/>
		</g>
		<path class="st6" d="M92.729,47.825L60.241,80.321c-0.586,0.586-0.586,1.535,0,2.121c0.293,0.293,0.677,0.439,1.06,0.439
			c0.384,0,0.767-0.146,1.06-0.439L94.85,49.946c0.586-0.585,0.586-1.536,0-2.121C94.264,47.239,93.315,47.239,92.729,47.825z"/>
		<path class="st6" d="M104.543,59.642L72.055,92.138c-0.586,0.586-0.586,1.535,0,2.121c0.293,0.293,0.677,0.439,1.06,0.439
			s0.767-0.146,1.06-0.439l32.488-32.496c0.586-0.585,0.586-1.536,0-2.121C106.078,59.056,105.129,59.056,104.543,59.642z"/>
	</g>
</g>
<g>
</g>
</svg>
