<?xml version="1.0" encoding="utf-8"?>
<!-- Generator: Adobe Illustrator 24.3.0, SVG Export Plug-In . SVG Version: 6.00 Build 0)  -->
<svg version="1.1" id="Layer_1" xmlns="http://www.w3.org/2000/svg" xmlns:xlink="http://www.w3.org/1999/xlink" x="0px" y="0px"
	 viewBox="0 0 300 300" enable-background="new 0 0 300 300" xml:space="preserve">
<g>
	<g>
		<g>
			<rect x="20.877" y="139.24" fill="#C1C1C1" width="258.245" height="16.14"/>
		</g>
		<g>
			<rect x="20.877" y="262.982" fill="#C1C1C1" width="258.245" height="16.14"/>
		</g>
		<g>
			<path fill="#E5E5E4" d="M123.1,155.38v9.494c0,6.641,3.431,12.027,10.072,12.027h31.702c6.641,0,12.027-5.385,12.027-12.027
				v-9.494H123.1z"/>
		</g>
		<g>
			<path fill="#E5E5E4" d="M37.018,155.38v9.494c0,6.641,3.431,12.027,10.072,12.027h31.702c6.641,0,12.027-5.385,12.027-12.027
				v-9.494H37.018z"/>
		</g>
		<g>
			<path fill="#E5E5E4" d="M209.181,155.38v9.494c0,6.641,3.431,12.027,10.072,12.027h31.702c6.641,0,12.027-5.385,12.027-12.027
				v-9.494H209.181z"/>
		</g>
		<g>
			<path fill="#E5E5E4" d="M176.9,262.982v-9.494c0-6.641-3.431-12.027-10.072-12.027h-31.702c-6.641,0-12.027,5.385-12.027,12.027
				v9.494H176.9z"/>
		</g>
		<g>
			<path fill="#E5E5E4" d="M262.982,262.982v-9.494c0-6.641-3.431-12.027-10.072-12.027h-31.702
				c-6.641,0-12.027,5.385-12.027,12.027v9.494H262.982z"/>
		</g>
		<g>
			<path fill="#E5E5E4" d="M90.819,262.982v-9.494c0-6.641-3.431-12.027-10.072-12.027H49.044c-6.641,0-12.027,5.385-12.027,12.027
				v9.494H90.819z"/>
		</g>
		<g>
			<path fill="#EFEFEF" d="M47.778,164.874v-9.494h-10.76v9.494c0,6.641,3.431,12.027,10.072,12.027h10.76
				C51.209,176.901,47.778,171.515,47.778,164.874z"/>
		</g>
		<g>
			<path fill="#EFEFEF" d="M59.805,241.462h-10.76c-6.641,0-12.027,5.385-12.027,12.027v9.494h10.76v-9.494
				C47.778,246.847,53.163,241.462,59.805,241.462z"/>
		</g>
		<g>
			<path fill="#EFEFEF" d="M133.86,164.874v-9.494H123.1v9.494c0,6.641,3.431,12.027,10.072,12.027h10.76
				C137.29,176.901,133.86,171.515,133.86,164.874z"/>
		</g>
		<g>
			<path fill="#EFEFEF" d="M145.886,241.462h-10.76c-6.641,0-12.027,5.385-12.027,12.027v9.494h10.76v-9.494
				C133.86,246.847,139.245,241.462,145.886,241.462z"/>
		</g>
		<g>
			<path fill="#EFEFEF" d="M219.941,164.874v-9.494h-10.76v9.494c0,6.641,3.431,12.027,10.072,12.027h10.76
				C223.372,176.901,219.941,171.515,219.941,164.874z"/>
		</g>
		<g>
			<path fill="#EFEFEF" d="M231.968,241.462h-10.76c-6.641,0-12.027,5.385-12.027,12.027v9.494h10.76v-9.494
				C219.941,246.847,225.327,241.462,231.968,241.462z"/>
		</g>
		<g>
			<rect x="53.158" y="176.901" fill="#E5E5E4" width="21.521" height="64.561"/>
		</g>
		<g>
			<rect x="139.24" y="176.901" fill="#E5E5E4" width="21.52" height="64.561"/>
		</g>
		<g>
			<rect x="225.322" y="176.901" fill="#E5E5E4" width="21.52" height="64.561"/>
		</g>
		<g>
			<path fill="#FFDA88" d="M120.562,101.579h58.877c9.956-8.391,16.293-20.932,16.293-34.971c0-25.256-20.475-45.731-45.731-45.731
				c-25.256,0-45.731,20.475-45.731,45.731C104.269,80.647,110.605,93.188,120.562,101.579z"/>
		</g>
		<g>
			<path fill="#FFE2A9" d="M120.409,66.608c0-22.497,16.261-41.16,37.661-44.974c-2.622-0.473-5.312-0.757-8.07-0.757
				c-25.256,0-45.731,20.475-45.731,45.731c0,14.039,6.336,26.58,16.292,34.971h16.14C126.745,93.188,120.409,80.647,120.409,66.608
				z"/>
		</g>
		<g>
			<path fill="#E5E5E4" d="M195.531,62.61c0.11,1.324,0.2,2.648,0.2,3.998c0,14.039-6.336,26.58-16.293,34.971h-58.877
				c-9.956-8.391-16.292-20.932-16.292-34.971c0-1.35,0.089-2.674,0.199-3.998l-83.591,76.63h258.245L195.531,62.61z"/>
		</g>
		<g>
			<path fill="#EFEFEF" d="M104.269,66.608c0-1.35,0.089-2.674,0.199-3.998l-83.591,76.63h16.14l68.355-62.665
				C104.658,73.365,104.269,70.034,104.269,66.608z"/>
		</g>
		<g>
			<path fill="#7FD3B9" d="M165.053,70.155c-0.978-1.718-2.181-3.053-3.62-4.04c-1.44-0.967-3.568-2.06-6.378-3.247
				c-3.846-1.545-5.759-3.384-5.759-5.496c0-1.072,0.368-1.997,1.104-2.779c0.746-0.756,1.629-1.156,2.653-1.156
				c1.334,0,3.526,0.898,6.552,2.69l4.35-6.835c-1.86-2.69-5.653-4.035-8.575-4.13v-3.074c0-1.592-1.881-2.884-5.38-2.884
				c-3.499,0-5.38,1.292-5.38,2.884v3.536c0,0-1.245,0.599-3.426,2.863c-2.391,2.475-2.606,6.647-2.606,9.515
				c0,5.737,4.902,8.212,6.037,9.074c1.129,0.862,3.042,1.865,5.296,2.842c4.629,1.981,6.798,3.547,6.798,5.79
				c0,1.082-0.483,2.122-1.507,3.11c-1.025,0.993-2.081,1.409-3.189,1.492c-3.137,0.221-5.711-1.986-9.316-4.639l-5.348,6.788
				c3.305,3.904,7.261,5.674,7.261,5.753v2.89c0,1.597,2.327,2.885,5.38,2.885c2.869,0,5.38-1.287,5.38-2.885v-2.89
				c0-0.031,3.846-0.536,6.562-2.879c2.674-2.312,4.597-5.89,4.597-9.573C166.54,73.748,166.025,71.888,165.053,70.155z"/>
		</g>
		<g>
			<rect x="101.579" y="101.579" fill="#7FD3B9" width="96.842" height="16.14"/>
		</g>
		<g>
			<rect x="101.579" y="101.579" fill="#BBEAD9" width="37.661" height="16.14"/>
		</g>
		<g>
			<rect x="20.877" y="139.24" fill="#D1D1D1" width="16.14" height="16.14"/>
		</g>
		<g>
			<rect x="20.877" y="262.982" fill="#D1D1D1" width="16.14" height="16.14"/>
		</g>
		<g>
			<rect x="53.158" y="176.901" fill="#EFEFEF" width="5.38" height="64.561"/>
		</g>
		<g>
			<rect x="139.24" y="176.901" fill="#EFEFEF" width="5.38" height="64.561"/>
		</g>
		<g>
			<rect x="225.322" y="176.901" fill="#EFEFEF" width="5.38" height="64.561"/>
		</g>
	</g>
	<g>
		<g>
			<path fill="#161616" d="M279.123,160.76H20.877c-2.974,0-5.38-2.406-5.38-5.38v-16.14c0-2.974,2.406-5.38,5.38-5.38h258.245
				c2.974,0,5.38,2.406,5.38,5.38v16.14C284.503,158.354,282.096,160.76,279.123,160.76z M26.258,150h247.485v-5.38H26.258V150z"/>
		</g>
		<g>
			<path fill="#161616" d="M279.123,284.503H20.877c-2.974,0-5.38-2.406-5.38-5.38v-16.14c0-2.974,2.406-5.38,5.38-5.38h258.245
				c2.974,0,5.38,2.406,5.38,5.38v16.14C284.503,282.096,282.096,284.503,279.123,284.503z M26.258,273.742h247.485v-5.38H26.258
				V273.742z"/>
		</g>
		<g>
			<path fill="#161616" d="M164.874,182.281h-31.703c-9.1,0-15.452-7.156-15.452-17.407v-9.494c0-2.974,2.406-5.38,5.38-5.38H176.9
				c2.974,0,5.38,2.406,5.38,5.38v9.494C182.281,174.473,174.473,182.281,164.874,182.281z M128.48,160.76v4.114
				c0,2.48,0.609,6.646,4.692,6.646h31.703c3.667,0,6.646-2.979,6.646-6.646v-4.114H128.48z"/>
		</g>
		<g>
			<path fill="#161616" d="M78.792,182.281H47.09c-9.1,0-15.452-7.156-15.452-17.407v-9.494c0-2.974,2.406-5.38,5.38-5.38h53.801
				c2.974,0,5.38,2.406,5.38,5.38v9.494C96.199,174.473,88.391,182.281,78.792,182.281z M42.398,160.76v4.114
				c0,2.48,0.609,6.646,4.692,6.646h31.703c3.667,0,6.646-2.979,6.646-6.646v-4.114H42.398z"/>
		</g>
		<g>
			<path fill="#161616" d="M250.956,182.281h-31.703c-9.1,0-15.452-7.156-15.452-17.407v-9.494c0-2.974,2.406-5.38,5.38-5.38h53.801
				c2.974,0,5.38,2.406,5.38,5.38v9.494C268.362,174.473,260.555,182.281,250.956,182.281z M214.561,160.76v4.114
				c0,2.48,0.609,6.646,4.692,6.646h31.703c3.667,0,6.646-2.979,6.646-6.646v-4.114H214.561z"/>
		</g>
		<g>
			<path fill="#161616" d="M176.9,268.362H123.1c-2.974,0-5.38-2.406-5.38-5.38v-9.494c0-9.599,7.808-17.406,17.407-17.406h31.703
				c9.1,0,15.452,7.156,15.452,17.406v9.494C182.281,265.956,179.874,268.362,176.9,268.362z M128.48,257.602h43.041v-4.114
				c0-2.48-0.609-6.646-4.692-6.646h-31.703c-3.667,0-6.646,2.979-6.646,6.646V257.602z"/>
		</g>
		<g>
			<path fill="#161616" d="M262.982,268.362h-53.801c-2.974,0-5.38-2.406-5.38-5.38v-9.494c0-9.599,7.807-17.406,17.406-17.406
				h31.703c9.1,0,15.452,7.156,15.452,17.406v9.494C268.362,265.956,265.956,268.362,262.982,268.362z M214.561,257.602h43.041
				v-4.114c0-2.48-0.609-6.646-4.692-6.646h-31.703c-3.667,0-6.646,2.979-6.646,6.646V257.602z"/>
		</g>
		<g>
			<path fill="#161616" d="M90.819,268.362H37.018c-2.974,0-5.38-2.406-5.38-5.38v-9.494c0-9.599,7.807-17.406,17.406-17.406h31.703
				c9.1,0,15.452,7.156,15.452,17.406v9.494C96.199,265.956,93.793,268.362,90.819,268.362z M42.398,257.602h43.041v-4.114
				c0-2.48-0.61-6.646-4.692-6.646H49.044c-3.667,0-6.646,2.979-6.646,6.646V257.602z"/>
		</g>
		<g>
			<path fill="#161616" d="M74.679,246.842H53.158c-2.974,0-5.38-2.406-5.38-5.38v-64.561c0-2.974,2.406-5.38,5.38-5.38h21.521
				c2.974,0,5.38,2.406,5.38,5.38v64.561C80.059,244.436,77.652,246.842,74.679,246.842z M58.538,236.082h10.76v-53.801h-10.76
				V236.082z"/>
		</g>
		<g>
			<path fill="#161616" d="M160.76,246.842h-21.52c-2.974,0-5.38-2.406-5.38-5.38v-64.561c0-2.974,2.406-5.38,5.38-5.38h21.52
				c2.974,0,5.38,2.406,5.38,5.38v64.561C166.14,244.436,163.734,246.842,160.76,246.842z M144.62,236.082h10.76v-53.801h-10.76
				V236.082z"/>
		</g>
		<g>
			<path fill="#161616" d="M179.438,106.959h-58.876c-1.271,0-2.496-0.447-3.468-1.266c-11.569-9.751-18.205-23.995-18.205-39.085
				c0-28.182,22.928-51.111,51.111-51.111s51.111,22.929,51.111,51.111c0,15.09-6.636,29.333-18.205,39.085
				C181.934,106.513,180.71,106.959,179.438,106.959z M122.595,96.199h54.81c8.249-7.639,12.946-18.321,12.946-29.591
				c0-22.251-18.1-40.351-40.351-40.351s-40.351,18.1-40.351,40.351C109.649,77.878,114.346,88.56,122.595,96.199z"/>
		</g>
		<g>
			<path fill="#161616" d="M165.053,70.155c-0.978-1.718-2.181-3.053-3.62-4.04c-1.44-0.967-3.568-2.06-6.378-3.247
				c-3.846-1.545-5.759-3.384-5.759-5.496c0-1.072,0.368-1.997,1.104-2.779c0.746-0.756,1.629-1.156,2.653-1.156
				c1.334,0,3.526,0.898,6.552,2.69l4.35-6.835c-1.86-2.69-5.653-4.035-8.575-4.13v-3.074c0-1.592-1.881-2.884-5.38-2.884
				c-3.499,0-5.38,1.292-5.38,2.884v3.536c0,0-1.245,0.599-3.426,2.863c-2.391,2.475-2.606,6.647-2.606,9.515
				c0,5.737,4.902,8.212,6.037,9.074c1.129,0.862,3.042,1.865,5.296,2.842c4.629,1.981,6.798,3.547,6.798,5.79
				c0,1.082-0.483,2.122-1.507,3.11c-1.025,0.993-2.081,1.409-3.189,1.492c-3.137,0.221-5.711-1.986-9.316-4.639l-5.348,6.788
				c3.305,3.904,7.261,5.674,7.261,5.753v2.89c0,1.597,2.327,2.885,5.38,2.885c2.869,0,5.38-1.287,5.38-2.885v-2.89
				c0-0.031,3.846-0.536,6.562-2.879c2.674-2.312,4.597-5.89,4.597-9.573C166.54,73.748,166.025,71.888,165.053,70.155z"/>
		</g>
		<g>
			<path fill="#161616" d="M198.421,123.1h-96.842c-2.974,0-5.38-2.406-5.38-5.38v-16.14c0-2.974,2.406-5.38,5.38-5.38h96.842
				c2.974,0,5.38,2.406,5.38,5.38v16.14C203.801,120.693,201.395,123.1,198.421,123.1z M106.959,112.339h86.082v-5.38h-86.082
				V112.339z"/>
		</g>
		<g>
			<path fill="#161616" d="M246.842,246.842h-21.52c-2.974,0-5.38-2.406-5.38-5.38v-64.561c0-2.974,2.406-5.38,5.38-5.38h21.52
				c2.974,0,5.38,2.406,5.38,5.38v16.14c0,2.974-2.406,5.38-5.38,5.38c-2.974,0-5.38-2.406-5.38-5.38v-10.76h-10.76v53.801h10.76
				v-21.521c0-2.974,2.406-5.38,5.38-5.38c2.974,0,5.38,2.406,5.38,5.38v26.901C252.222,244.436,249.816,246.842,246.842,246.842z"
				/>
		</g>
		<g>
			<path fill="#161616" d="M279.123,144.62H20.877c-2.217,0-4.208-1.361-5.012-3.431c-0.804-2.065-0.258-4.413,1.377-5.916
				l28.55-26.175c2.196-2.007,5.595-1.855,7.603,0.331c2.007,2.191,1.86,5.596-0.331,7.603L34.706,133.86h230.588l-64.787-59.391
				c-1.881,12.1-8.065,23.186-17.601,31.225c-0.972,0.82-2.196,1.266-3.468,1.266h-58.876c-1.271,0-2.496-0.447-3.468-1.266
				c-9.536-8.039-15.72-19.125-17.601-31.225l-30.552,28.009c-2.196,2.007-5.595,1.855-7.603-0.331
				c-2.007-2.191-1.86-5.595,0.331-7.603l39.163-35.901c1.634-1.497,4.025-1.844,6.005-0.862c1.986,0.972,3.173,3.068,2.99,5.275
				c-0.095,1.177-0.179,2.354-0.179,3.552c0,11.27,4.697,21.951,12.946,29.591h54.81c8.249-7.639,12.946-18.321,12.946-29.591
				c0-1.198-0.084-2.375-0.179-3.552c-0.184-2.207,1.004-4.303,2.99-5.275c1.986-0.977,4.377-0.636,6.005,0.862l83.591,76.63
				c1.634,1.503,2.18,3.851,1.377,5.916C283.331,143.259,281.34,144.62,279.123,144.62z"/>
		</g>
	</g>
</g>
</svg>
