<?xml version="1.0" encoding="utf-8"?>
<!-- Generator: Adobe Illustrator 19.2.0, SVG Export Plug-In . SVG Version: 6.00 Build 0)  -->
<svg version="1.1" id="Layer_1" xmlns="http://www.w3.org/2000/svg" xmlns:xlink="http://www.w3.org/1999/xlink" x="0px" y="0px"
	 viewBox="0 0 500 500" style="enable-background:new 0 0 500 500;" xml:space="preserve">
<style type="text/css">
	.st0{fill:#ECF4F7;}
	.st1{fill:#1C1D21;}
	.st2{fill:#83E1E5;}
	.st3{fill:#AAB1BA;}
	.st4{fill:none;stroke:#1C1D21;stroke-width:10;stroke-linecap:round;stroke-linejoin:round;stroke-miterlimit:10;}
	.st5{fill:#FDDF7F;}
	.st6{fill:#FFFFFF;}
</style>
<g>
	<g>
		<g>
			<path class="st0" d="M387.6,5H35C18.4,5,5,18.4,5,35v430c0,16.6,13.4,30,30,30h430c16.6,0,30-13.4,30-30V112.4L387.6,5z"/>
		</g>
	</g>
	<g>
		<g>
			<g>
				<path class="st3" d="M495,112.4L387.6,5v78.9c0,15.7,12.8,28.5,28.5,28.5H495z"/>
			</g>
		</g>
		<g>
			<g>
				<path class="st1" d="M495,117.4h-78.9c-18.5,0-33.5-15-33.5-33.5V5c0-2,1.2-3.8,3.1-4.6c1.9-0.8,4-0.3,5.4,1.1l107.4,107.4
					c1.4,1.4,1.9,3.6,1.1,5.4C498.8,116.2,497,117.4,495,117.4z M392.6,17.1v66.9c0,12.9,10.5,23.5,23.5,23.5h66.9L392.6,17.1z"/>
			</g>
		</g>
	</g>
	<g>
		<g>
			<g>
				<g>
					<path class="st3" d="M400.5,473.7c0-9.1-7.3-16.4-16.4-16.4h-16.7c-7,0-13.2-4.4-15.5-11c-1.5-4.6-3.4-9.1-5.6-13.5
						c-3.1-6.2-1.7-13.7,3.2-18.6l11.8-11.8c6.4-6.4,6.4-16.8,0-23.2l-9.9-9.9c-6.4-6.4-16.8-6.4-23.2,0l-11.8,11.8
						c-4.9,4.9-12.4,6.3-18.6,3.2c-4.4-2.2-8.9-4-13.5-5.6c-6.6-2.2-11-8.5-11-15.5v-16.7c0-9.1-7.3-16.4-16.4-16.4l-14,0
						c-9.1,0-16.4,7.3-16.4,16.4l0,16.7c0,7-4.4,13.2-11,15.5c-4.6,1.5-9.1,3.4-13.5,5.6c-6.2,3.1-13.7,1.7-18.6-3.2l-11.8-11.8
						c-6.4-6.4-16.8-6.4-23.2,0l-9.9,9.9c-6.4,6.4-6.4,16.8,0,23.2l11.8,11.8c4.9,4.9,6.3,12.4,3.2,18.6c-2.2,4.4-4,8.9-5.6,13.5
						c-2.2,6.6-8.5,11-15.5,11l-16.7,0c-9.1,0-16.4,7.3-16.4,16.4V495h301V473.7z"/>
				</g>
			</g>
			<g>
				<g>
					<path class="st1" d="M400.5,500h-301c-2.8,0-5-2.2-5-5v-21.3c0-11.8,9.6-21.4,21.4-21.4h16.7c4.9,0,9.2-3,10.7-7.5
						c1.6-4.8,3.6-9.6,5.8-14.1c2.1-4.2,1.2-9.4-2.3-12.9l-11.8-11.8c-4-4-6.3-9.4-6.3-15.1s2.2-11.1,6.3-15.1l9.9-9.9
						c4-4,9.4-6.3,15.1-6.3c5.7,0,11.1,2.2,15.1,6.3l11.8,11.8c3.5,3.5,8.6,4.4,12.9,2.3c4.6-2.3,9.3-4.2,14.1-5.8
						c4.5-1.5,7.5-5.8,7.5-10.7l0-16.7c0-5.7,2.2-11.1,6.3-15.1c4-4,9.4-6.3,15.1-6.3h14c11.8,0,21.4,9.6,21.4,21.4v16.7
						c0,4.9,3,9.2,7.5,10.7c4.8,1.6,9.6,3.6,14.1,5.8c4.2,2.1,9.4,1.2,12.9-2.3l11.8-11.8c8.3-8.3,21.9-8.3,30.3,0l9.9,9.9
						c8.3,8.3,8.3,21.9,0,30.3l-11.8,11.8c-3.5,3.5-4.4,8.6-2.3,12.9c2.3,4.6,4.2,9.3,5.8,14.1c1.5,4.5,5.8,7.5,10.7,7.5h16.7
						c11.8,0,21.4,9.6,21.4,21.4V495C405.5,497.8,403.3,500,400.5,500z M104.5,490h291v-16.4c0-6.3-5.1-11.4-11.4-11.4h-16.7
						c-9.2,0-17.3-5.8-20.2-14.4c-1.5-4.4-3.3-8.7-5.3-12.9c-4-8.1-2.3-17.9,4.2-24.4l11.8-11.8c4.4-4.4,4.4-11.7,0-16.1l-9.9-9.9
						c-4.4-4.4-11.7-4.4-16.1,0L320,384.6c-6.5,6.5-16.3,8.2-24.4,4.2c-4.1-2.1-8.5-3.8-12.9-5.3c-8.6-2.9-14.4-11-14.4-20.2v-16.7
						c0-6.3-5.1-11.4-11.4-11.4h-14c-3,0-5.9,1.2-8.1,3.3c-2.2,2.2-3.3,5-3.3,8.1l0,16.7c0,9.2-5.8,17.3-14.4,20.2
						c-4.4,1.5-8.7,3.3-12.9,5.3c-8.1,4-17.9,2.3-24.4-4.2l-11.8-11.8c-2.2-2.2-5-3.3-8.1-3.3c-3,0-5.9,1.2-8.1,3.3l-9.9,9.9
						c-2.2,2.2-3.3,5-3.3,8.1s1.2,5.9,3.3,8.1l11.8,11.8c6.5,6.5,8.2,16.3,4.2,24.4c-2.1,4.1-3.8,8.5-5.3,12.9
						c-2.9,8.6-11,14.4-20.2,14.4h-16.7c-6.3,0-11.4,5.1-11.4,11.4V490z"/>
				</g>
			</g>
			<g>
				<g>
					<path class="st5" d="M187,495c0-34.7,28.3-63,63-63c34.7,0,63,28.3,63,63L187,495z"/>
				</g>
			</g>
			<g>
				<g>
					<path class="st1" d="M313,500H187c-2.8,0-5-2.2-5-5c0-37.5,30.5-68,68-68s68,30.5,68,68C318,497.8,315.8,500,313,500z
						 M192.2,490h115.6c-2.5-29.6-27.5-53-57.8-53S194.8,460.4,192.2,490z"/>
				</g>
			</g>
		</g>
		<g>
			<g>
				<path class="st1" d="M400.5,157.6h-161c-2.8,0-5-2.2-5-5c0-2.8,2.2-5,5-5h161c2.8,0,5,2.2,5,5
					C405.5,155.4,403.3,157.6,400.5,157.6z"/>
			</g>
		</g>
		<g>
			<g>
				<path class="st1" d="M204,157.6h-48c-2.8,0-5-2.2-5-5c0-2.8,2.2-5,5-5h48c2.8,0,5,2.2,5,5C209,155.4,206.8,157.6,204,157.6z"/>
			</g>
		</g>
		<g>
			<g>
				<path class="st1" d="M116,157.6H99.5c-2.8,0-5-2.2-5-5c0-2.8,2.2-5,5-5H116c2.8,0,5,2.2,5,5C121,155.4,118.8,157.6,116,157.6z"
					/>
			</g>
		</g>
		<g>
			<g>
				<path class="st1" d="M400.5,200.8h-301c-2.8,0-5-2.2-5-5c0-2.8,2.2-5,5-5h301c2.8,0,5,2.2,5,5
					C405.5,198.6,403.3,200.8,400.5,200.8z"/>
			</g>
		</g>
		<g>
			<g>
				<path class="st1" d="M400.5,244h-301c-2.8,0-5-2.2-5-5s2.2-5,5-5h301c2.8,0,5,2.2,5,5S403.3,244,400.5,244z"/>
			</g>
		</g>
		<g>
			<g>
				<path class="st1" d="M400.5,287.2h-301c-2.8,0-5-2.2-5-5c0-2.8,2.2-5,5-5h301c2.8,0,5,2.2,5,5
					C405.5,285,403.3,287.2,400.5,287.2z"/>
			</g>
		</g>
	</g>
	<g>
		<g>
			<path class="st1" d="M465,500H35c-19.3,0-35-15.7-35-35V298c0-2.8,2.2-5,5-5s5,2.2,5,5v167c0,13.8,11.2,25,25,25h430
				c13.8,0,25-11.2,25-25V114.5L385.5,10H35c-13.8,0-25,11.2-25,25v13c0,2.8-2.2,5-5,5s-5-2.2-5-5V35C0,15.7,15.7,0,35,0h352.6
				c1.3,0,2.6,0.5,3.5,1.5l107.4,107.4c0.9,0.9,1.5,2.2,1.5,3.5V465C500,484.3,484.3,500,465,500z"/>
		</g>
	</g>
	<g>
		<g>
			<path class="st1" d="M5,255c-2.8,0-5-2.2-5-5V128c0-2.8,2.2-5,5-5s5,2.2,5,5v122C10,252.8,7.8,255,5,255z"/>
		</g>
	</g>
	<g>
		<g>
			<path class="st1" d="M5,104c-2.8,0-5-2.2-5-5V85.2c0-2.8,2.2-5,5-5s5,2.2,5,5V99C10,101.8,7.8,104,5,104z"/>
		</g>
	</g>
</g>
</svg>
