<?xml version="1.0" encoding="UTF-8"?>
<!DOCTYPE svg PUBLIC "-//W3C//DTD SVG 1.1//EN" "http://www.w3.org/Graphics/SVG/1.1/DTD/svg11.dtd">
<!-- Creator: CorelDRAW -->
<svg xmlns="http://www.w3.org/2000/svg" xml:space="preserve" width="2048px" height="2048px" style="shape-rendering:geometricPrecision; text-rendering:geometricPrecision; image-rendering:optimizeQuality; fill-rule:evenodd; clip-rule:evenodd"
viewBox="0 0 2048 2048"
 xmlns:xlink="http://www.w3.org/1999/xlink">
 <defs>
  <style type="text/css">
   <![CDATA[
    .fil0 {fill:none}
    .fil1 {fill:#006064}
    .fil3 {fill:#00838F}
    .fil2 {fill:#424242}
    .fil4 {fill:#BDBDBD}
    .fil6 {fill:#424242;fill-rule:nonzero}
    .fil5 {fill:#616161;fill-rule:nonzero}
   ]]>
  </style>
 </defs>
 <g id="Layer_x0020_1">
  <metadata id="CorelCorpID_0Corel-Layer"/>
  <g id="_527588440">
   <rect id="_527592952" class="fil0" x="-0.000588025" y="-0.000588025" width="2048" height="2048"/>
   <rect id="_527581696" class="fil0" x="255.999" y="255.999" width="1536" height="1536"/>
   <g>
    <rect id="_527596264" class="fil1" x="511.997" y="543.998" width="1024" height="337.491"/>
    <polygon id="_527585824" class="fil2" points="537.789,972.649 1327.87,972.649 1327.87,1033.43 537.789,1033.43 "/>
    <path id="_527597296" class="fil2" d="M1464.62 1048.62c-25.1918,0 -45.5764,-20.3894 -45.5764,-45.58 0,-25.1469 20.3847,-45.5835 45.5764,-45.5835 25.1988,0 45.5859,20.4366 45.5859,45.5835 0,25.1906 -20.387,45.58 -45.5859,45.58z"/>
    <path id="_527608696" class="fil3" d="M385.857 729.545l1276.29 0c33.5752,0 63.9532,13.6134 85.9418,35.6032 22.0075,22.0075 35.6114,52.4103 35.6114,85.9548l0 455.817c0,33.5776 -13.5969,63.9674 -35.5925,85.9631 -21.9921,21.9945 -52.3796,35.5914 -85.9607,35.5914l-1276.29 0c-33.5422,0 -63.9426,-13.6051 -85.9512,-35.6138 -21.9886,-21.9886 -35.602,-52.3666 -35.602,-85.9406l0 -455.817c0,-33.5362 13.6228,-63.9284 35.6244,-85.9312 22.0028,-22.004 52.3937,-35.6268 85.9288,-35.6268z"/>
    <rect id="_527581792" class="fil1" x="447.997" y="1038.51" width="1152.01" height="113.491"/>
    <rect id="_527586064" class="fil4" x="612.028" y="351.999" width="823.945" height="377.546"/>
    <rect id="_527605312" class="fil4" x="612.028" y="1152" width="823.945" height="544"/>
    <circle id="_527607784" class="fil2" cx="1569.76" cy="982.764" r="30.2368"/>
    <circle id="_527585224" class="fil4" cx="1493.21" cy="982.764" r="30.2368"/>
    <line id="_527577160" class="fil0" x1="736.001" y1="1248" x2="1280" y2= "1248" />
    <polygon id="_527596024" class="fil5" points="752,1232 1296,1232 1296,1264 752,1264 "/>
    <polygon id="_527607352" class="fil6" points="752,1344 1296,1344 1296,1568 752,1568 "/>
   </g>
  </g>
 </g>
</svg>
