<?xml version="1.0" encoding="utf-8"?>
<!-- Generator: Adobe Illustrator 22.1.0, SVG Export Plug-In . SVG Version: 6.00 Build 0)  -->
<svg version="1.1" id="Layer_1" xmlns="http://www.w3.org/2000/svg" xmlns:xlink="http://www.w3.org/1999/xlink" x="0px" y="0px"
	 viewBox="0 0 256 256" style="enable-background:new 0 0 256 256;" xml:space="preserve">
<style type="text/css">
	.st0{fill:#D73735;}
	.st1{fill:#F85252;}
	.st2{fill:#EDAF85;}
	.st3{fill:#F7C09A;}
	.st4{fill:#D8D6D7;}
	.st5{fill:#FFFFFF;}
	.st6{fill:#1C868E;}
	.st7{fill:#40C4DF;}
	.st8{fill:#491352;}
	.st9{fill:#56C1B3;}
	.st10{fill:#7BEFE4;}
</style>
<g>
	<rect x="114.17" y="147.67" class="st4" width="27.66" height="84.16"/>
	<rect x="131.09" y="147.67" class="st5" width="10.74" height="84.16"/>
	<path class="st4" d="M245.36,165.897H10.64c-2.761,0-5-2.239-5-5V8c0-2.761,2.239-5,5-5h234.72c2.761,0,5,2.239,5,5v152.897
		C250.36,163.658,248.121,165.897,245.36,165.897z"/>
	<path class="st9" d="M237.36,21v126.9c0,2.76-2.24,5-5,5H23.64c-2.76,0-5-2.24-5-5V21c0-2.76,2.24-5,5-5h208.72
		C235.12,16,237.36,18.24,237.36,21z"/>
	<path class="st10" d="M237.36,21v126.9c0,2.76-2.24,5-5,5H45.39c-2.76,0-5-2.24-5-5V21c0-2.76,2.24-5,5-5h186.97
		C235.12,16,237.36,18.24,237.36,21z"/>
	<path class="st4" d="M191.67,236.83v11.67c0,2.76-2.24,5-5,5H69.33c-2.76,0-5-2.24-5-5v-11.67c0-2.76,2.24-5,5-5h117.34
		C189.43,231.83,191.67,234.07,191.67,236.83z"/>
	<path class="st5" d="M191.67,236.83v11.67c0,2.76-2.24,5-5,5H85.33c-2.76,0-5-2.24-5-5v-11.67c0-2.76,2.24-5,5-5h101.34
		C189.43,231.83,191.67,234.07,191.67,236.83z"/>
	<path class="st1" d="M201.695,132.68h-113.5c-2.761,0-5-2.239-5-5V30.241c0-2.761,2.239-5,5-5h113.5c2.761,0,5,2.239,5,5v97.439
		C206.695,130.442,204.457,132.68,201.695,132.68z"/>
	<path class="st5" d="M204.085,132.68H85.805c-1.441,0-2.61-1.168-2.61-2.61V27.851c0-1.441,1.168-2.61,2.61-2.61h29.865
		l12.756,15.848c0.886,1.101,2.224,1.741,3.637,1.741h74.632v87.241C206.695,131.512,205.527,132.68,204.085,132.68z"/>
	<circle class="st5" cx="183.616" cy="34.189" r="3.448"/>
	<circle class="st5" cx="196.237" cy="34.189" r="3.448"/>
	<g>
		<g>
			<path class="st7" d="M131.185,100.616L114.943,85.6c-1.731-1.6-1.733-4.342,0-5.945l16.242-15.016
				c1.641-1.518,4.202-1.418,5.72,0.224c1.518,1.641,1.418,4.202-0.224,5.72l-13.027,12.045l13.027,12.045
				c1.642,1.518,1.742,4.078,0.224,5.72C135.385,102.036,132.825,102.132,131.185,100.616z"/>
		</g>
		<path class="st7" d="M172.142,101.692h-19.625c-2.267,0-4.104-1.838-4.104-4.104v0c0-2.267,1.837-4.104,4.104-4.104h19.625
			c2.267,0,4.104,1.837,4.104,4.104v0C176.246,99.855,174.409,101.692,172.142,101.692z"/>
	</g>
	<path class="st1" d="M114.45,101.76h-5.95c-0.52-1.75-1.22-3.46-2.11-5.09l4.21-4.21c1.03-1.02,1.03-2.69,0-3.72l-6.89-6.88
		c-1.03-1.03-2.69-1.03-3.72,0l-4.21,4.21c-1.63-0.89-3.34-1.59-5.09-2.11v-5.95c0-1.45-1.18-2.63-2.63-2.63h-9.74
		c-1.45,0-2.63,1.18-2.63,2.63v5.95c-1.75,0.52-3.45,1.22-5.09,2.11l-4.21-4.21c-1.02-1.03-2.69-1.03-3.72,0l-6.88,6.88
		c-1.03,1.03-1.03,2.7,0,3.72L60,96.67c-0.97,1.78-1.71,3.64-2.24,5.55h-5.82c-1.46,0-2.63,1.18-2.63,2.62v9.74
		c0,1.46,1.17,2.64,2.63,2.64h6.09c0.49,1.59,1.15,3.14,1.97,4.63l-4.21,4.21c-1.03,1.03-1.03,2.69,0,3.72l6.88,6.89
		c1.03,1.02,2.7,1.02,3.72,0l4.21-4.21c1.64,0.89,3.34,1.59,5.09,2.11v5.95c0,1.46,1.18,2.64,2.63,2.64h9.74
		c1.45,0,2.63-1.18,2.63-2.64v-5.95c1.75-0.52,3.46-1.22,5.1-2.11l4.2,4.21c1.03,1.02,2.69,1.02,3.72,0l6.89-6.89
		c1.03-1.03,1.03-2.69,0-3.72l-4.21-4.2c0.89-1.64,1.59-3.35,2.11-5.1h5.95c1.46,0,2.63-1.18,2.63-2.63v-9.74
		C117.08,102.94,115.91,101.76,114.45,101.76z M83.2,125.26c-8.88,0-16-7.2-16-15.99c0-8.88,7.2-16,16-16
		c8.83,0,15.99,7.16,15.99,16C99.19,118.13,92.01,125.26,83.2,125.26z"/>
	<g>
		<path class="st8" d="M245.36,0.75H10.64c-3.859,0-7,3.14-7,7v152.896c0,3.86,3.141,7,7,7h101.53v61.932H69.333
			c-3.859,0-7,3.14-7,7v11.671c0,3.86,3.141,7,7,7h117.334c3.859,0,7-3.14,7-7v-11.671c0-3.86-3.141-7-7-7H143.83v-61.932h101.53
			c3.859,0,7-3.14,7-7V7.75C252.36,3.89,249.22,0.75,245.36,0.75z M186.667,233.579c1.654,0,3,1.346,3,3v11.671c0,1.654-1.346,3-3,3
			H69.333c-1.654,0-3-1.346-3-3v-11.671c0-1.654,1.346-3,3-3C71.108,233.579,184.35,233.579,186.667,233.579z M116.17,229.579
			v-61.932h23.66v61.932H116.17z M248.36,160.646c0,1.654-1.346,3-3,3H10.64c-1.654,0-3-1.346-3-3V7.75c0-1.654,1.346-3,3-3H245.36
			c1.654,0,3,1.346,3,3V160.646z"/>
		<path class="st8" d="M232.36,13.75H23.641c-3.859,0-7,3.14-7,7v126.896c0,3.86,3.141,7,7,7h208.72c3.859,0,7-3.14,7-7V20.75
			C239.36,16.89,236.22,13.75,232.36,13.75z M235.36,147.646c0,1.654-1.346,3-3,3H23.641c-1.654,0-3-1.346-3-3V20.75
			c0-1.654,1.346-3,3-3h208.72c1.654,0,3,1.346,3,3V147.646z"/>
		<path class="st8" d="M83.196,91.267c-9.925,0-17.999,8.075-17.999,18c0,9.923,8.074,17.996,17.999,17.996
			c9.923,0,17.996-8.073,17.996-17.996C101.192,99.342,93.119,91.267,83.196,91.267z M81,123.073
			c-6.677-1.059-11.803-6.837-11.803-13.806c0-6.97,5.126-12.75,11.803-13.81V123.073z M85,123.132V95.397
			c6.867,0.89,12.192,6.763,12.192,13.87C97.192,116.371,91.867,122.243,85,123.132z"/>
		<path class="st8" d="M201.7,23.24c-51.839,0-63.41,0-115.9,0c-2.536,0-4.6,2.068-4.6,4.61c0,50.729,0,40.922,0,45.526h-2.876
			c-2.555,0-4.633,2.078-4.633,4.632v4.499c-0.916,0.325-1.819,0.699-2.701,1.12l-3.182-3.178c-1.828-1.836-4.767-1.791-6.548-0.003
			l-6.886,6.881c-1.813,1.813-1.806,4.75-0.001,6.548l3.182,3.185c-0.485,1.021-0.91,2.075-1.272,3.156h-4.346
			c-2.554,0-4.632,2.076-4.632,4.628v9.738c0,2.554,2.078,4.632,4.632,4.632h4.663c0.282,0.761,0.601,1.513,0.953,2.25l-3.182,3.185
			c-1.801,1.808-1.799,4.745,0.002,6.546l6.887,6.889c1.805,1.805,4.74,1.805,6.545,0l3.186-3.185c0.877,0.417,1.778,0.792,2.7,1.12
			v4.503c0,2.554,2.078,4.632,4.633,4.632h9.733c2.555,0,4.633-2.078,4.633-4.632v-4.502c0.927-0.33,1.83-0.704,2.707-1.12
			l3.185,3.191c1.806,1.79,4.74,1.79,6.544-0.006l3.405-3.405c4.897,0,91.078,0,95.559,0c2.542,0,4.61-2.068,4.61-4.61
			c0-9.895,0-83.168,0-99.83C208.7,26.38,205.56,23.24,201.7,23.24z M109.187,128.368c-0.044,0.044-0.08,0.08-0.116,0.116
			c0,0-0.005,0.005-0.02,0.02c-0.051,0.051-0.096,0.096-0.132,0.132c-0.001,0.001-0.001,0.001-0.002,0.002
			c-0.032,0.032-0.064,0.064-0.09,0.09c-0.031,0.031-0.05,0.05-0.055,0.055c-0.598,0.598-2.268,2.268-6.472,6.472
			c-0.247,0.246-0.653,0.246-0.895,0.004l-4.205-4.212c-0.626-0.626-1.59-0.769-2.371-0.344c-1.471,0.8-3.057,1.458-4.713,1.953
			c-0.847,0.253-1.427,1.032-1.427,1.916v5.952c0,0.349-0.284,0.632-0.633,0.632h-9.733c-0.349,0-0.633-0.283-0.633-0.632v-5.952
			c0-0.884-0.58-1.663-1.427-1.916c-1.643-0.491-3.226-1.148-4.706-1.953c-0.786-0.426-1.748-0.278-2.369,0.343l-4.212,4.212
			c-0.24,0.24-0.647,0.241-0.888,0l-6.887-6.889c-0.245-0.246-0.244-0.647,0.001-0.894l4.208-4.212
			c0.628-0.628,0.766-1.596,0.339-2.375c-0.748-1.364-1.356-2.798-1.808-4.262c-0.259-0.839-1.033-1.411-1.911-1.411h-6.095
			c-0.349,0-0.632-0.284-0.632-0.632v-9.738c0-0.346,0.283-0.628,0.632-0.628h5.825c0.899,0,1.688-0.601,1.928-1.467
			c0.496-1.794,1.189-3.516,2.063-5.118c0.425-0.778,0.285-1.743-0.341-2.371L57.2,91.045c-0.244-0.242-0.242-0.645,0.003-0.889
			l6.889-6.884c0.24-0.24,0.636-0.247,0.887,0.004l4.212,4.208c0.624,0.625,1.588,0.767,2.368,0.342
			c1.501-0.816,3.081-1.471,4.698-1.947c0.851-0.25,1.435-1.032,1.435-1.918v-5.952c0-0.349,0.284-0.632,0.633-0.632
			c2.313,0,4.533,0,9.733,0c0.349,0,0.633,0.284,0.633,0.632v5.952c0,0.887,0.584,1.668,1.435,1.918
			c1.641,0.483,3.222,1.138,4.698,1.945c0.779,0.426,1.745,0.286,2.373-0.341l4.205-4.205c0.252-0.25,0.646-0.253,0.897-0.002
			l6.888,6.88c0.243,0.243,0.25,0.645,0,0.893l-4.212,4.212c-0.629,0.628-0.767,1.596-0.34,2.375
			c0.803,1.465,1.458,3.046,1.949,4.697c0.252,0.848,1.032,1.43,1.917,1.43h5.952c0.349,0,0.632,0.283,0.632,0.632v9.734
			c0,0.349-0.283,0.632-0.632,0.632h-5.952c-0.885,0-1.665,0.582-1.917,1.43c-0.492,1.656-1.148,3.24-1.95,4.708
			c-0.426,0.78-0.287,1.747,0.342,2.375l4.208,4.199C109.431,127.721,109.432,128.123,109.187,128.368z M204.7,127.68
			c0,1.654-1.346,3-3,3h-89.264c1.349-1.809,1.222-4.384-0.422-6.035l-3.182-3.176c0.417-0.876,0.792-1.781,1.12-2.709h4.501
			c2.554,0,4.632-2.078,4.632-4.632v-9.734c0-2.554-2.078-4.632-4.632-4.632h-4.501c-0.328-0.925-0.703-1.829-1.12-2.703l3.18-3.18
			c0.875-0.872,1.358-2.033,1.359-3.271c0.002-2.479-0.956-2.881-8.245-10.163c-1.801-1.8-4.737-1.803-6.55,0l-3.18,3.18
			c-0.879-0.419-1.782-0.793-2.706-1.12v-4.498c0-2.554-2.078-4.632-4.633-4.632H85.2V30.24c0-1.654,1.346-3,3-3h26.513
			l12.155,15.099c1.266,1.583,3.158,2.491,5.191,2.491H204.7V127.68z M204.7,40.83H132.06c-0.8,0-1.572-0.37-2.072-0.995
			l-10.14-12.595H201.7c1.654,0,3,1.346,3,3V40.83z"/>
		<path class="st8" d="M112.325,34.77c0-1.104-0.896-2-2-2H93.054c-1.104,0-2,0.896-2,2s0.896,2,2,2h17.271
			C111.43,36.77,112.325,35.874,112.325,34.77z"/>
		<path class="st8" d="M183.616,28.741c-3.004,0-5.448,2.444-5.448,5.448s2.444,5.448,5.448,5.448s5.448-2.444,5.448-5.448
			S186.62,28.741,183.616,28.741z M183.616,35.638c-0.799,0-1.448-0.65-1.448-1.448s0.649-1.448,1.448-1.448s1.448,0.65,1.448,1.448
			S184.415,35.638,183.616,35.638z"/>
		<path class="st8" d="M196.237,28.741c-3.004,0-5.448,2.444-5.448,5.448s2.444,5.448,5.448,5.448s5.448-2.444,5.448-5.448
			S199.241,28.741,196.237,28.741z M196.237,35.638c-0.799,0-1.448-0.65-1.448-1.448s0.649-1.448,1.448-1.448
			s1.448,0.65,1.448,1.448S197.036,35.638,196.237,35.638z"/>
		<path class="st8" d="M111.645,82.628c0,3.522,0.871,3.451,18.184,19.456c3.926,3.633,10.36,0.703,10.148-4.677
			c-0.127-3.238-1.1-3.428-13.376-14.78c12.255-11.331,13.249-11.54,13.376-14.78c0.212-5.393-6.219-8.309-10.148-4.678
			C112.493,79.197,111.643,79.114,111.645,82.628z M135.323,69.115L122.297,81.16c-0.856,0.79-0.856,2.147,0,2.937
			c14.106,13.043,13.637,12.301,13.683,13.468c0.071,1.798-2.087,2.832-3.437,1.584v0c-17.537-16.214-16.898-15.261-16.898-16.52
			c-0.002-1.256-0.643-0.302,16.899-16.521C134.528,64.271,137.309,67.279,135.323,69.115z"/>
		<path class="st8" d="M152.517,103.692h19.625c3.366,0,6.104-2.738,6.104-6.104s-2.738-6.104-6.104-6.104h-19.625
			c-3.365,0-6.104,2.738-6.104,6.104S149.151,103.692,152.517,103.692z M152.517,95.484h19.625c2.781,0,2.781,4.208,0,4.208h-19.625
			C149.737,99.692,149.735,95.484,152.517,95.484z"/>
	</g>
</g>
</svg>
