<svg id="SvgjsSvg1001" width="288" height="288" xmlns="http://www.w3.org/2000/svg" version="1.1" xmlns:xlink="http://www.w3.org/1999/xlink" xmlns:svgjs="http://svgjs.com/svgjs"><defs id="SvgjsDefs1002"></defs><g id="SvgjsG1008"><svg xmlns="http://www.w3.org/2000/svg" viewBox="0 0 48 48" width="288" height="288"><g data-name="protected product quality" fill="#000000" class="color000 svgShape"><path fill="#dea811" d="M41,4V28.68L37.94,27l-9,5c.81,4.71,1,8.33,4.64,12H1V4Z" class="coloredb996 svgShape"></path><path fill="#ffbf0b" d="M41,4V28.68L37.94,27c-5.95,3.34,5.2-3-11,6,.76,4.44.88,6.27,2.3,8.82A28,28,0,0,1,4,14V4Z" class="colorf6ccaf svgShape"></path><path fill="#ca970b" d="M47,32c-.74,4.62-.86,7.65-3.7,11.1a13.82,13.82,0,0,1-5.22,4,14,14,0,0,1-8.31-10.46L29,32.05l9-5Z" class="color9dcc6b svgShape"></path><path fill="#ffbf0b" d="M47,32c-.74,4.62-.86,7.65-3.7,11.1a14.07,14.07,0,0,1-3.22,2,14,14,0,0,1-8.31-10.46l-.63-3.69L37.94,27Z" class="colorb5e08c svgShape"></path><rect width="14" height="10" x="14" y="4" fill="#ffbf0b" class="colora87e6b svgShape"></rect><path fill="#e8b011" d="M28,4v7H24a7,7,0,0,1-7-7Z" class="colorbe927c svgShape"></path><rect width="12" height="8" x="5" y="32" fill="#dad7e5" class="colordad7e5 svgShape"></rect><path fill="#edebf2" d="M17,32v6H13a6,6,0,0,1-6-6Z" class="coloredebf2 svgShape"></path><path d="M47.45,31.07l-5.45-3V4a1,1,0,0,0-1-1H1A1,1,0,0,0,0,4V44a1,1,0,0,0,1,1H33.19c.86.81,4.18,3.39,5.26,2.92A14.85,14.85,0,0,0,47.23,36.6C48,32,48.27,31.52,47.45,31.07ZM27,5v8H15V5ZM2,5H13v9a1,1,0,0,0,1,1H28a1,1,0,0,0,1-1V5H40V27c-1.54-.85-1.71-1-2-1s.13-.23-9.47,5.17c-.82.46-.52.9.28,5.53A14.93,14.93,0,0,0,31.43,43H2ZM45.26,36.28a12.85,12.85,0,0,1-7.21,9.6,12.79,12.79,0,0,1-7.32-9.51l-.66-3.79L38,28.14l7.92,4.35Z" fill="#000000" class="color000 svgShape"></path><path d="M17,31H5a1,1,0,0,0-1,1v8a1,1,0,0,0,1,1H17a1,1,0,0,0,1-1V32A1,1,0,0,0,17,31Zm-1,8H6V33H16Z" fill="#000000" class="color000 svgShape"></path><path d="M9 37h4a1 1 0 000-2H9A1 1 0 009 37zM37 38.59l-2.29-2.3a1 1 0 00-1.42 1.42l3 3a1 1 0 001.42 0l6-6a1 1 0 00-1.42-1.42z" fill="#000000" class="color000 svgShape"></path></g></svg></g></svg>