<?xml version="1.0" encoding="UTF-8"?>
<!DOCTYPE svg PUBLIC "-//W3C//DTD SVG 1.1//EN" "http://www.w3.org/Graphics/SVG/1.1/DTD/svg11.dtd">
<!-- Creator: CorelDRAW -->
<svg xmlns="http://www.w3.org/2000/svg" xml:space="preserve" width="2048px" height="2048px" style="shape-rendering:geometricPrecision; text-rendering:geometricPrecision; image-rendering:optimizeQuality; fill-rule:evenodd; clip-rule:evenodd"
viewBox="0 0 2048 2048"
 xmlns:xlink="http://www.w3.org/1999/xlink">
 <defs>
  <style type="text/css">
   <![CDATA[
    .fil2 {fill:none}
    .fil7 {fill:#6C949B}
    .fil1 {fill:#C5E1A5}
    .fil13 {fill:#C93C3A}
    .fil6 {fill:#CFAE8C}
    .fil0 {fill:#DCEDC8}
    .fil5 {fill:#E6C19C}
    .fil16 {fill:#00838F;fill-rule:nonzero}
    .fil11 {fill:#26C6DA;fill-rule:nonzero}
    .fil15 {fill:#3E2723;fill-rule:nonzero}
    .fil10 {fill:#4B4B4D;fill-rule:nonzero}
    .fil8 {fill:#749FA6;fill-rule:nonzero}
    .fil4 {fill:#86AEB6;fill-rule:nonzero}
    .fil12 {fill:#DD403D;fill-rule:nonzero}
    .fil14 {fill:#EF5350;fill-rule:nonzero}
    .fil3 {fill:#F16767;fill-rule:nonzero}
    .fil9 {fill:#F2CEA5;fill-rule:nonzero}
   ]]>
  </style>
   <clipPath id="id0">
    <path d="M1024 -0.0011811c565.539,0 1024,458.462 1024,1024 0,565.539 -458.462,1024 -1024,1024 -565.539,0 -1024,-458.462 -1024,-1024 0,-565.539 458.462,-1024 1024,-1024z"/>
   </clipPath>
 </defs>
 <g id="Layer_x0020_1">
  <metadata id="CorelCorpID_0Corel-Layer"/>
  <path class="fil0" d="M1024 -0.0011811c565.539,0 1024,458.462 1024,1024 0,565.539 -458.462,1024 -1024,1024 -565.539,0 -1024,-458.462 -1024,-1024 0,-565.539 458.462,-1024 1024,-1024z"/>
  <g style="clip-path:url(#id0)">
   <g id="_289370336">
    <g>
     <polygon id="_3063092401" class="fil1" points="1293.36,809.533 2429.24,1945.42 2432.1,2042.55 1296.21,906.667 "/>
     <polygon id="_306309600" class="fil1" points="1436.03,968.329 2571.91,2104.21 2575.46,2108.54 2578.68,2112.89 2581.6,2117.24 2584.28,2121.57 2586.74,2125.85 2589.02,2130.05 2591.17,2134.16 2593.21,2138.14 2595.2,2141.98 2597.16,2145.63 2599.13,2149.1 2601.16,2152.33 2603.27,2155.32 2605.52,2158.03 1469.64,1022.15 1467.39,1019.44 1465.28,1016.45 1463.25,1013.21 1461.28,1009.75 1459.32,1006.09 1457.33,1002.26 1455.29,998.279 1453.14,994.172 1450.86,989.968 1448.4,985.689 1445.72,981.36 1442.79,977.007 1439.57,972.655 "/>
     <polygon id="_292671320" class="fil1" points="1296.21,906.667 2432.1,2042.55 2292.04,1945.42 1156.16,809.533 "/>
     <polygon id="_292671344" class="fil1" points="1496.83,1031.01 2632.71,2166.9 2632.82,2169.25 2632.85,2171.56 2632.79,2173.82 2632.65,2176.03 2632.43,2178.2 2632.13,2180.32 2631.75,2182.39 2631.3,2184.42 2630.76,2186.39 2630.16,2188.33 2629.48,2190.21 2628.72,2192.05 2627.9,2193.85 2627.01,2195.59 2626.05,2197.29 2625.02,2198.95 2623.93,2200.56 2622.77,2202.12 2621.55,2203.64 2620.27,2205.11 2618.93,2206.54 2617.53,2207.92 2616.07,2209.26 2614.55,2210.55 2612.98,2211.8 2611.36,2213 2609.68,2214.16 2607.95,2215.27 2606.17,2216.33 2604.35,2217.36 2602.47,2218.34 2600.55,2219.27 1464.67,1083.39 1466.59,1082.45 1468.47,1081.47 1470.29,1080.45 1472.07,1079.39 1473.8,1078.27 1475.48,1077.12 1477.1,1075.91 1478.67,1074.67 1480.19,1073.38 1481.64,1072.04 1483.05,1070.66 1484.39,1069.23 1485.67,1067.76 1486.89,1066.24 1488.05,1064.68 1489.14,1063.07 1490.17,1061.41 1491.13,1059.71 1492.02,1057.96 1492.84,1056.17 1493.6,1054.33 1494.28,1052.44 1494.88,1050.51 1495.42,1048.53 1495.87,1046.51 1496.25,1044.44 1496.55,1042.32 1496.77,1040.15 1496.91,1037.94 1496.97,1035.68 1496.94,1033.37 "/>
     <polygon id="_292671512" class="fil1" points="884.835,737.333 2020.72,1873.22 1951.44,1873.22 815.555,737.333 "/>
     <polygon id="_292671272" class="fil1" points="1156.16,809.533 2292.04,1945.42 2042.48,1945.42 906.596,809.533 "/>
     <polygon id="_292671560" class="fil1" points="1454.14,1168.24 2590.02,2304.12 2589.13,2307.06 2588.19,2309.96 2587.21,2312.82 2586.18,2315.64 2585.11,2318.41 2583.99,2321.15 2582.83,2323.84 2581.63,2326.49 2580.38,2329.09 2579.1,2331.66 2577.77,2334.18 2576.41,2336.67 2575,2339.11 2573.56,2341.5 2572.08,2343.86 2570.56,2346.18 2569,2348.45 2567.41,2350.68 2565.78,2352.87 2564.12,2355.02 2562.43,2357.12 2560.7,2359.19 2558.94,2361.21 2557.15,2363.19 2555.32,2365.13 2553.47,2367.02 2551.59,2368.88 2549.67,2370.69 2547.73,2372.46 2545.76,2374.19 2543.77,2375.88 2541.74,2377.53 1405.86,1241.64 1407.89,1240 1409.88,1238.31 1411.85,1236.58 1413.79,1234.81 1415.7,1233 1417.59,1231.14 1419.44,1229.25 1421.27,1227.31 1423.06,1225.33 1424.82,1223.3 1426.55,1221.24 1428.24,1219.13 1429.9,1216.99 1431.53,1214.8 1433.12,1212.57 1434.68,1210.29 1436.19,1207.98 1437.68,1205.62 1439.12,1203.22 1440.52,1200.78 1441.89,1198.3 1443.22,1195.78 1444.5,1193.21 1445.75,1190.6 1446.95,1187.95 1448.11,1185.26 1449.23,1182.53 1450.3,1179.76 1451.33,1176.94 1452.31,1174.08 1453.25,1171.18 "/>
     <polygon id="_292671296" class="fil1" points="1405.86,1241.64 2541.74,2377.53 2541.74,2399.81 1405.86,1263.93 "/>
     <polygon id="_292670960" class="fil1" points="1405.86,1263.93 2541.74,2399.81 2541.74,2416.24 1405.86,1280.36 "/>
     <polygon id="_292671392" class="fil1" points="1418.81,1283.86 2554.69,2419.74 2555.4,2420.56 2556.04,2421.45 2556.6,2422.41 1420.72,1286.53 1420.16,1285.57 1419.52,1284.68 "/>
     <polygon id="_292671056" class="fil1" points="1420.72,1286.53 2556.6,2422.41 2556.56,2422.43 1420.67,1286.55 "/>
     <polygon id="_292671080" class="fil1" points="1420.67,1286.55 2556.56,2422.43 2579.26,2465.5 1443.37,1329.62 "/>
     <polygon id="_292671752" class="fil1" points="1560.25,1364.9 2696.13,2500.78 2697.54,2502.29 2698.9,2503.83 2700.24,2505.41 2701.53,2507.01 2702.79,2508.65 2704.01,2510.32 2705.18,2512.01 2706.32,2513.74 2707.42,2515.5 2708.48,2517.28 2709.49,2519.09 2710.46,2520.92 2711.39,2522.79 2712.28,2524.67 2713.11,2526.58 2713.91,2528.52 2714.66,2530.47 2715.36,2532.45 2716.01,2534.46 2716.61,2536.48 2717.17,2538.52 2717.67,2540.58 2718.13,2542.66 2718.54,2544.76 2718.89,2546.88 2719.19,2549.01 2719.44,2551.16 2719.63,2553.32 2719.77,2555.5 2719.85,2557.69 2719.88,2559.9 1584,1424.02 1583.97,1421.81 1583.89,1419.62 1583.75,1417.44 1583.55,1415.28 1583.31,1413.13 1583.01,1410.99 1582.65,1408.88 1582.25,1406.78 1581.79,1404.7 1581.29,1402.64 1580.73,1400.6 1580.13,1398.57 1579.48,1396.57 1578.77,1394.59 1578.03,1392.64 1577.23,1390.7 1576.39,1388.79 1575.51,1386.9 1574.58,1385.04 1573.61,1383.21 1572.6,1381.4 1571.54,1379.61 1570.44,1377.86 1569.3,1376.13 1568.12,1374.43 1566.91,1372.77 1565.65,1371.13 1564.35,1369.52 1563.02,1367.95 1561.65,1366.41 "/>
     <polygon id="_292672328" class="fil1" points="678.36,737.333 1814.24,1873.22 1777.11,1873.22 641.227,737.333 "/>
     <polygon id="_292672112" class="fil1" points="641.227,737.333 1777.11,1873.22 1774.88,1873.1 1772.72,1872.77 1770.64,1872.24 1768.64,1871.51 1766.73,1870.59 1764.94,1869.5 1763.27,1868.25 1761.72,1866.84 625.838,730.96 627.384,732.364 629.059,733.616 630.853,734.706 632.756,735.623 634.756,736.355 636.841,736.892 639.002,737.221 "/>
     <polygon id="_292672352" class="fil1" points="856.523,1183.58 1992.4,2319.46 1991.92,2319.92 1991.46,2320.34 1991.01,2320.74 1990.58,2321.1 1990.16,2321.43 1989.76,2321.73 1989.37,2322 1989,2322.24 853.117,1186.36 853.49,1186.12 853.879,1185.85 854.281,1185.55 854.699,1185.21 855.132,1184.85 855.579,1184.46 856.044,1184.04 "/>
     <polygon id="_292672256" class="fil1" points="588.152,1182.23 1724.03,2318.11 1722.85,2320.12 1721.57,2321.95 1720.18,2323.58 1718.69,2325 1717.11,2326.21 1715.44,2327.18 1713.69,2327.91 1711.85,2328.38 575.969,1192.5 577.805,1192.02 579.56,1191.3 581.229,1190.32 582.81,1189.12 584.297,1187.7 585.685,1186.07 586.972,1184.24 "/>
     <polygon id="_292672064" class="fil1" points="815.555,737.333 1951.44,1873.22 1811.39,1970.35 675.505,834.467 "/>
     <polygon id="_292671728" class="fil1" points="817.194,988.476 1953.07,2124.36 1957.47,2128.86 1961.6,2133.39 1965.48,2137.94 1969.14,2142.48 1972.62,2146.98 1975.94,2151.4 1979.13,2155.74 1982.21,2159.95 1985.21,2164.01 1988.17,2167.9 1991.1,2171.58 1994.04,2175.04 1997.01,2178.23 861.127,1042.35 858.155,1039.15 855.217,1035.7 852.284,1032.02 849.329,1028.13 846.325,1024.07 843.244,1019.86 840.059,1015.52 836.74,1011.09 833.261,1006.6 829.595,1002.06 825.714,997.51 821.59,992.974 "/>
     <polygon id="_292672208" class="fil1" points="906.596,809.533 2042.48,1945.42 2040.25,1945.3 2038.09,1944.97 2036.01,1944.44 2034.01,1943.71 2032.1,1942.79 2030.31,1941.7 2028.64,1940.45 2027.09,1939.04 891.209,803.16 892.755,804.564 894.429,805.816 896.224,806.906 898.126,807.823 900.125,808.555 902.211,809.091 904.371,809.421 "/>
     <polygon id="_292672376" class="fil1" points="806.938,1256.58 1942.82,2392.46 1942.82,2413.78 806.938,1277.9 "/>
     <polygon id="_292671872" class="fil1" points="620.229,1299.53 1756.11,2435.41 1756.06,2435.39 620.183,1299.51 "/>
     <polygon id="_292672496" class="fil1" points="733.346,1585.29 1869.23,2721.17 1843.87,2721.17 707.99,1585.29 "/>
     <polygon id="_292672520" class="fil1" points="707.99,1585.29 1843.87,2721.17 1599.88,2721.17 464,1585.29 "/>
     <polygon id="_292673048" class="fil1" points="575.969,1192.5 1711.85,2328.38 1710.72,2328.53 1709.66,2328.56 1708.67,2328.46 1707.74,2328.25 1706.88,2327.92 1706.09,2327.48 1705.35,2326.93 569.467,1191.05 570.206,1191.6 571.003,1192.04 571.862,1192.37 572.784,1192.58 573.774,1192.68 574.835,1192.65 "/>
     <polygon id="_292672472" class="fil1" points="634.398,1255.71 1770.28,2391.59 1768.31,2389.95 1766.36,2388.26 630.478,1252.38 632.424,1254.07 "/>
     <polygon id="_292672592" class="fil1" points="893.956,1055.1 2029.84,2190.98 2029.94,2193.23 2029.97,2195.44 2029.91,2197.6 2029.78,2199.72 2029.57,2201.79 2029.28,2203.82 2028.92,2205.8 2028.48,2207.74 2027.97,2209.63 2027.39,2211.48 2026.74,2213.28 2026.02,2215.04 2025.23,2216.76 2024.38,2218.43 2023.46,2220.06 2022.48,2221.64 2021.43,2223.18 2020.33,2224.68 2019.16,2226.13 2017.93,2227.54 2016.65,2228.9 2015.31,2230.22 2013.91,2231.5 2012.46,2232.74 2010.96,2233.93 2009.41,2235.08 2007.8,2236.19 2006.15,2237.25 2004.45,2238.27 2002.7,2239.25 2000.91,2240.19 1999.07,2241.08 863.193,1105.2 865.029,1104.3 866.822,1103.37 868.569,1102.39 870.27,1101.37 871.922,1100.3 873.526,1099.2 875.081,1098.05 876.583,1096.86 878.032,1095.62 879.428,1094.34 880.768,1093.02 882.051,1091.66 883.277,1090.25 884.446,1088.8 885.552,1087.3 886.598,1085.76 887.58,1084.18 888.499,1082.55 889.353,1080.88 890.141,1079.16 890.86,1077.4 891.511,1075.6 892.092,1073.75 892.601,1071.86 893.038,1069.92 893.401,1067.94 893.688,1065.91 893.899,1063.84 894.033,1061.72 894.088,1059.56 894.062,1057.35 "/>
     <polygon id="_292673072" class="fil1" points="977.336,1585.29 2113.22,2721.17 1869.23,2721.17 733.346,1585.29 "/>
     <polygon id="_292672544" class="fil1" points="863.193,1105.2 1999.07,2241.08 1999.07,2242.08 1999.06,2243.06 1999.06,2244.01 1999.05,2244.93 1999.05,2245.82 1999.04,2246.68 1999.03,2247.5 1999.03,2248.29 863.147,1112.4 863.153,1111.62 863.159,1110.8 863.164,1109.94 863.169,1109.05 863.175,1108.13 863.181,1107.18 863.187,1106.2 "/>
     <polygon id="_292672640" class="fil1" points="881.759,1109.61 2017.64,2245.5 2018.27,2246.15 2018.82,2246.87 2019.28,2247.67 2019.67,2248.53 2019.98,2249.47 2020.23,2250.48 2020.4,2251.55 2020.52,2252.69 2020.58,2253.89 2020.58,2255.15 2020.53,2256.47 2020.44,2257.85 2020.3,2259.29 2020.12,2260.78 2019.91,2262.33 2019.67,2263.93 2019.4,2265.58 2019.11,2267.28 2018.8,2269.03 2018.47,2270.83 2018.14,2272.67 2017.79,2274.55 2017.44,2276.48 2017.09,2278.44 2016.75,2280.45 2016.41,2282.49 2016.09,2284.57 2015.78,2286.65 2015.49,2288.72 2015.22,2290.77 2014.97,2292.78 2014.72,2294.77 2014.49,2296.73 2014.25,2298.65 2014.02,2300.53 2013.79,2302.36 2013.55,2304.15 2013.31,2305.89 2013.05,2307.57 2012.78,2309.19 2012.49,2310.76 2012.18,2312.25 2011.85,2313.68 2011.49,2315.04 2011.1,2316.32 2010.68,2317.52 2010.22,2318.64 2009.73,2319.68 2009.19,2320.62 2008.6,2321.47 2007.97,2322.22 2007.29,2322.87 2006.55,2323.42 2005.75,2323.86 2004.89,2324.19 2003.97,2324.4 2002.98,2324.5 2001.92,2324.47 2000.78,2324.32 1999.62,2324.05 1998.48,2323.68 1997.38,2323.21 1996.32,2322.64 1995.28,2321.98 1994.29,2321.23 1993.33,2320.39 857.446,1184.51 858.406,1185.35 859.403,1186.1 860.435,1186.76 861.503,1187.33 862.603,1187.8 863.737,1188.17 864.902,1188.44 866.036,1188.59 867.096,1188.62 868.086,1188.52 869.009,1188.31 869.867,1187.98 870.664,1187.54 871.404,1186.99 872.089,1186.34 872.722,1185.59 873.305,1184.74 873.845,1183.79 874.341,1182.76 874.799,1181.64 875.221,1180.44 875.61,1179.16 875.969,1177.8 876.301,1176.37 876.609,1174.87 876.897,1173.31 877.168,1171.69 877.425,1170 877.671,1168.27 877.908,1166.48 878.141,1164.64 878.371,1162.77 878.604,1160.85 878.841,1158.89 879.086,1156.9 879.342,1154.88 879.611,1152.84 879.897,1150.77 880.204,1148.68 880.529,1146.61 880.867,1144.56 881.212,1142.56 881.56,1140.59 881.91,1138.67 882.256,1136.79 882.594,1134.95 882.92,1133.15 883.231,1131.4 883.523,1129.7 883.791,1128.05 884.033,1126.45 884.244,1124.9 884.42,1123.41 884.557,1121.97 884.65,1120.59 884.698,1119.27 884.696,1118 884.638,1116.8 884.524,1115.67 884.346,1114.6 884.103,1113.59 883.789,1112.65 883.403,1111.78 882.937,1110.99 882.39,1110.26 "/>
     <polygon id="_292672688" class="fil1" points="1177.14,1163.92 2313.02,2299.8 2311.78,2301.91 2310.44,2303.82 2308.99,2305.52 2307.43,2307.01 2305.78,2308.26 2304.04,2309.28 2302.2,2310.04 2300.28,2310.54 2299.1,2310.7 2297.99,2310.72 2296.95,2310.63 2295.99,2310.4 2295.09,2310.06 2294.26,2309.6 2293.48,2309.03 2292.77,2308.34 1156.89,1172.46 1157.6,1173.14 1158.38,1173.72 1159.21,1174.17 1160.11,1174.52 1161.07,1174.74 1162.11,1174.84 1163.21,1174.82 1164.4,1174.66 1166.32,1174.16 1168.15,1173.4 1169.9,1172.38 1171.55,1171.12 1173.11,1169.64 1174.56,1167.93 1175.9,1166.02 "/>
     <polygon id="_292673144" class="fil1" points="1328.93,1585.29 2464.81,2721.17 2438.3,2721.17 1302.42,1585.29 "/>
     <polygon id="_292673000" class="fil1" points="853.117,1186.36 1989,2322.24 1988.15,2325.06 1987.25,2327.83 1986.31,2330.57 1985.33,2333.26 1984.3,2335.91 1983.23,2338.53 1982.12,2341.1 1980.97,2343.64 1979.78,2346.13 1978.55,2348.58 1977.28,2351 1975.98,2353.37 1974.63,2355.71 1973.25,2358 1971.83,2360.26 1970.38,2362.47 1968.89,2364.65 1967.37,2366.78 1965.82,2368.87 1964.23,2370.93 1962.61,2372.94 1960.95,2374.92 1959.27,2376.85 1957.55,2378.75 1955.81,2380.6 1954.04,2382.41 1952.23,2384.19 1950.4,2385.92 1948.55,2387.62 1946.66,2389.27 1944.75,2390.88 1942.82,2392.46 806.938,1256.58 808.873,1255 810.783,1253.39 812.666,1251.73 814.523,1250.04 816.353,1248.31 818.155,1246.53 819.929,1244.72 821.672,1242.86 823.387,1240.97 825.072,1239.03 826.724,1237.06 828.346,1235.05 829.934,1232.99 831.49,1230.9 833.012,1228.76 834.499,1226.59 835.952,1224.37 837.369,1222.12 838.751,1219.83 840.095,1217.49 841.401,1215.12 842.67,1212.7 843.899,1210.25 845.09,1207.75 846.24,1205.22 847.351,1202.65 848.418,1200.03 849.445,1197.38 850.429,1194.68 851.369,1191.95 852.265,1189.17 "/>
     <polygon id="_292673840" class="fil1" points="806.938,1277.9 1942.82,2413.78 1942.82,2429.49 806.938,1293.61 "/>
     <polygon id="_292673672" class="fil1" points="818.585,1296.24 1954.47,2432.12 1955.21,2432.84 1955.89,2433.62 1956.5,2434.47 1957.03,2435.39 821.153,1299.51 820.615,1298.59 820.005,1297.74 819.325,1296.96 "/>
     <polygon id="_292673480" class="fil1" points="821.153,1299.51 1957.03,2435.39 1956.99,2435.41 821.107,1299.53 "/>
     <polygon id="_292673336" class="fil1" points="821.107,1299.53 1956.99,2435.41 1978.7,2476.61 842.821,1340.73 "/>
     <polygon id="_292673648" class="fil1" points="977.336,1431.03 2113.22,2566.91 2113.22,2721.17 977.336,1585.29 "/>
     <polygon id="_292673888" class="fil1" points="950.389,1370.35 2086.27,2506.23 2087.71,2507.57 2089.12,2508.95 953.241,1373.07 951.831,1371.69 "/>
     <polygon id="_292673384" class="fil1" points="953.241,1373.07 2089.12,2508.95 2090.5,2510.36 2091.84,2511.8 2093.15,2513.28 2094.43,2514.78 2095.66,2516.32 2096.87,2517.88 2098.03,2519.48 2099.16,2521.1 2100.25,2522.75 2101.3,2524.43 2102.31,2526.14 2103.28,2527.87 2104.21,2529.63 2105.1,2531.41 2105.94,2533.21 2106.74,2535.04 2107.5,2536.89 2108.22,2538.76 2108.89,2540.65 2109.51,2542.57 2110.09,2544.5 2110.62,2546.46 2111.11,2548.43 2111.54,2550.42 2111.93,2552.43 2112.27,2554.45 2112.55,2556.49 2112.79,2558.55 2112.98,2560.62 2113.11,2562.7 2113.19,2564.8 2113.22,2566.91 977.336,1431.03 977.309,1428.92 977.228,1426.82 977.095,1424.73 976.911,1422.66 976.673,1420.61 976.386,1418.57 976.048,1416.54 975.662,1414.54 975.226,1412.55 974.742,1410.58 974.211,1408.62 973.632,1406.69 973.007,1404.77 972.337,1402.88 971.623,1401.01 970.863,1399.16 970.061,1397.33 969.216,1395.52 968.328,1393.74 967.398,1391.99 966.428,1390.26 965.417,1388.55 964.367,1386.87 963.278,1385.22 962.15,1383.6 960.986,1382 959.783,1380.44 958.544,1378.9 957.271,1377.39 955.961,1375.92 954.618,1374.48 "/>
     <polygon id="_292673432" class="fil1" points="1302.42,1585.29 2438.3,2721.17 2183.23,2721.17 1047.34,1585.29 "/>
     <polygon id="_292673624" class="fil1" points="1103.67,470.627 2239.55,1606.51 2240.81,1608.19 2241.9,1609.98 2242.81,1611.88 2243.55,1613.88 2244.08,1615.97 2244.41,1618.13 2244.52,1620.35 1108.64,484.47 1108.53,482.244 1108.2,480.084 1107.66,477.998 1106.93,476 1106.02,474.097 1104.93,472.303 "/>
     <polygon id="_292673456" class="fil1" points="1108.64,484.47 2244.52,1620.35 2244.52,1670.79 1108.64,534.907 "/>
     <polygon id="_292673576" class="fil1" points="1369.04,542.827 2504.93,1678.71 2506.18,1680.38 2507.27,1682.18 2508.18,1684.08 2508.92,1686.08 2509.45,1688.17 2509.78,1690.33 2509.89,1692.55 1374.01,556.669 1373.9,554.444 1373.57,552.284 1373.03,550.198 1372.3,548.198 1371.39,546.296 1370.3,544.502 "/>
     <polygon id="_292674200" class="fil1" points="1374.01,556.669 2509.89,1692.55 2509.89,1923.65 1374.01,787.772 "/>
     <polygon id="_292674272" class="fil1" points="1374.01,787.772 2509.89,1923.65 2509.78,1925.88 2509.45,1928.04 2508.92,1930.13 2508.18,1932.12 2507.27,1934.03 2506.18,1935.82 2504.93,1937.5 2503.52,1939.04 2501.97,1940.45 2500.3,1941.7 2498.51,1942.79 2496.6,1943.71 2494.6,1944.44 2492.52,1944.97 2490.36,1945.3 2488.13,1945.42 1352.25,809.533 1354.48,809.421 1356.64,809.091 1358.72,808.555 1360.72,807.823 1362.62,806.906 1364.42,805.816 1366.09,804.564 1367.64,803.16 1369.04,801.614 1370.3,799.939 1371.39,798.145 1372.3,796.242 1373.03,794.244 1373.57,792.158 1373.9,789.997 "/>
     <polygon id="_292674296" class="fil1" points="1352.25,809.533 2488.13,1945.42 2429.24,1945.42 1293.36,809.533 "/>
     <polygon id="_292674104" class="fil1" points="1464.67,1083.39 2600.55,2219.27 2600.55,2220.32 2600.54,2221.34 2600.54,2222.33 2600.53,2223.3 2600.52,2224.23 2600.52,2225.13 2600.51,2225.98 2600.5,2226.8 1464.62,1090.92 1464.63,1090.1 1464.64,1089.24 1464.64,1088.35 1464.65,1087.42 1464.65,1086.45 1464.66,1085.46 1464.67,1084.44 "/>
     <polygon id="_292674128" class="fil1" points="1484.74,1088.68 2620.62,2224.57 2621.2,2225.32 2621.68,2226.16 2622.09,2227.06 2622.41,2228.05 2622.67,2229.1 2622.85,2230.22 2622.97,2231.41 2623.03,2232.66 2623.04,2233.98 2622.99,2235.36 2622.89,2236.8 2622.74,2238.31 2622.56,2239.87 2622.34,2241.49 2622.09,2243.16 2621.81,2244.89 2621.5,2246.67 2621.18,2248.49 2620.84,2250.37 2620.48,2252.29 2620.12,2254.26 2619.76,2256.28 2619.39,2258.33 2619.03,2260.43 2618.68,2262.56 2618.34,2264.73 1482.46,1128.85 1482.8,1126.68 1483.15,1124.54 1483.51,1122.45 1483.87,1120.39 1484.24,1118.38 1484.6,1116.41 1484.95,1114.49 1485.3,1112.61 1485.62,1110.78 1485.93,1109 1486.21,1107.28 1486.46,1105.6 1486.68,1103.99 1486.86,1102.43 1487.01,1100.92 1487.1,1099.48 1487.15,1098.1 1487.15,1096.78 1487.09,1095.52 1486.97,1094.33 1486.79,1093.21 1486.53,1092.16 1486.2,1091.18 1485.8,1090.28 1485.31,1089.44 "/>
     <polygon id="_292674056" class="fil1" points="1457.7,1165.33 2593.58,2301.22 2593.08,2301.69 2592.59,2302.14 2592.13,2302.55 2591.67,2302.92 2591.24,2303.27 2590.82,2303.58 2590.41,2303.87 2590.02,2304.12 1454.14,1168.24 1454.53,1167.99 1454.94,1167.7 1455.36,1167.39 1455.79,1167.04 1456.25,1166.66 1456.71,1166.25 1457.2,1165.81 "/>
     <polygon id="_292674416" class="fil1" points="1584,1424.02 2719.88,2559.9 2719.88,2721.17 1584,1585.29 "/>
     <polygon id="_292674488" class="fil1" points="1482.46,1128.85 2618.34,2264.73 2618.02,2266.91 2617.72,2269.08 2617.44,2271.21 2617.17,2273.32 2616.91,2275.4 2616.67,2277.45 2616.42,2279.45 2616.18,2281.42 2615.94,2283.34 2615.69,2285.21 2615.43,2287.02 2615.16,2288.78 2614.88,2290.48 2614.58,2292.11 2614.26,2293.68 2613.91,2295.17 2613.53,2296.59 2613.13,2297.93 2612.69,2299.19 2612.21,2300.36 2611.69,2301.44 2611.13,2302.42 2610.52,2303.31 2609.85,2304.1 2609.14,2304.78 2608.36,2305.35 2607.53,2305.81 2606.63,2306.15 2605.67,2306.38 2604.64,2306.48 2603.53,2306.45 2602.34,2306.29 2601.12,2306.01 2599.94,2305.62 2598.79,2305.13 2597.67,2304.54 2596.59,2303.85 2595.55,2303.06 2594.55,2302.18 2593.58,2301.22 1457.7,1165.33 1458.66,1166.3 1459.67,1167.18 1460.71,1167.96 1461.79,1168.66 1462.91,1169.25 1464.06,1169.74 1465.24,1170.13 1466.46,1170.41 1467.65,1170.57 1468.75,1170.6 1469.79,1170.5 1470.75,1170.27 1471.65,1169.93 1472.48,1169.47 1473.26,1168.9 1473.97,1168.22 1474.63,1167.43 1475.25,1166.54 1475.81,1165.56 1476.33,1164.48 1476.81,1163.31 1477.25,1162.05 1477.65,1160.71 1478.03,1159.29 1478.38,1157.8 1478.7,1156.23 1479,1154.6 1479.28,1152.9 1479.55,1151.14 1479.81,1149.32 1480.06,1147.45 1480.3,1145.54 1480.54,1143.57 1480.78,1141.56 1481.03,1139.52 1481.29,1137.44 1481.55,1135.33 1481.84,1133.19 1482.14,1131.03 "/>
     <polygon id="_292674632" class="fil1" points="1210.67,1286.55 2346.55,2422.43 2346.5,2422.41 1210.62,1286.53 "/>
     <polygon id="_292674704" class="fil1" points="1225.48,1240.73 2361.36,2376.62 2359.3,2374.9 2357.27,2373.14 2355.26,2371.34 2353.28,2369.49 2351.34,2367.6 1215.46,1231.71 1217.4,1233.61 1219.38,1235.46 1221.38,1237.26 1223.42,1239.02 "/>
     <polygon id="_292675064" class="fil1" points="1584,1585.29 2719.88,2721.17 2464.81,2721.17 1328.93,1585.29 "/>
    </g>
    <path id="_289370360" class="fil1" d="M1374.01 931.954c99.3355,27.2386 70.7386,105.658 122.819,99.0591 1.64764,25.3736 -11.439,42.6449 -32.1603,52.3748 -0.0153543,2.8252 -0.0318898,5.40237 -0.0484252,7.53308 4.55788,-4.07599 9.64489,-6.02245 14.6717,-5.09764 13.0654,2.40236 6.70512,19.6677 3.16181,43.0264 -3.54449,23.3575 -2.93268,43.963 -15.9969,41.5607 -3.29055,-0.604725 -6.24213,-2.38229 -8.76024,-5.07638 -1.35945,1.31221 -2.53819,2.27126 -3.56103,2.90551 -9.24922,31.6004 -26.5618,56.0741 -48.2764,73.4032l0 22.2886 0 16.4291c5.7626,-1.59685 12.0803,0.890552 14.8595,6.16418l-0.0472441 0.022441 22.6996 43.0713c0.878741,0.20315 1.51536,0.411024 1.89213,0.624804 12.8906,4.25433 27.3272,7.99371 52.9512,7.99371 23.602,0 45.0508,9.64725 60.593,25.1894 15.5421,15.5421 25.1894,36.991 25.1894,60.5918l0 161.274 -255.073 0 -26.5075 0 -255.075 0 0 -161.274c0,-23.6008 9.64725,-45.0496 25.1894,-60.5918 15.5421,-15.5433 36.991,-25.1894 60.593,-25.1894 8.34804,0 15.665,-0.493701 22.2709,-1.32284 6.75945,-0.850394 12.6343,-1.99961 18.0272,-3.30945 3.53268,-0.857481 6.96497,-1.61929 10.2201,-2.74488 1.03937,-0.360236 2.45551,-0.700394 4.21181,-1.02402l22.8142 -43.2886 -0.0472441 -0.022441c2.77795,-5.27363 9.09804,-7.76103 14.8595,-6.16418l0 -16.4291 0 -23.1969c-22.1575,-18.065 -39.5988,-43.676 -48.3473,-76.8142 -3.13701,5.85473 -7.50827,9.77481 -12.7358,10.7362 -13.0654,2.40236 -12.4536,-18.2032 -15.998,-41.5607 -3.54449,-23.3587 -9.90355,-40.624 3.16181,-43.0264 4.73268,-0.870473 9.51851,0.804331 13.865,4.40433 1.67126,-40.5201 -11.5264,-105.563 56.9894,-148.554 17.1154,-10.7386 39.8303,-8.62914 46.4091,-4.97953 13.1374,-24.4181 70.891,-18.3898 105.186,-8.98583zm-396.677 499.072l0 154.266 -243.99 0 -25.3559 0 -243.99 0 0 -154.266c0,-22.5744 9.22796,-43.0914 24.0945,-57.9591 14.8665,-14.8665 35.3835,-24.0945 57.9603,-24.0945 7.98544,0 14.9835,-0.472441 21.3024,-1.26614 6.46536,-0.812599 12.0862,-1.91103 17.2453,-3.16418 3.37677,-0.820867 6.66142,-1.54843 9.77481,-2.62559 0.994489,-0.343701 2.34803,-0.670867 4.02756,-0.979135l21.8244 -41.4083 -0.046063 -0.022441c2.65866,-5.04567 8.70237,-7.42323 14.2146,-5.89607l0 -15.7134 0 -22.1906c-21.1949,-17.2795 -37.878,-41.7792 -46.2461,-73.4764 -3.00118,5.59961 -7.18229,9.35079 -12.1831,10.2709 -12.4973,2.29725 -11.9114,-17.413 -15.3024,-39.7559 -3.39095,-22.3429 -9.47245,-38.8583 3.02362,-41.1567 4.65355,-0.855119 9.36024,0.861024 13.611,4.50591 2.79213,-39.4217 -7.32048,-103.983 58.5237,-145.298 16.1587,-10.1398 33.4512,-5.58189 39.7926,-2.00079 9.97205,-24.2481 43.8591,-26.113 76.643,-17.1236 95.0186,26.0551 91.878,109.739 141.696,103.427 1.57559,24.2717 -10.9429,40.7918 -30.763,50.0989 -0.0153543,2.70236 -0.0307087,5.16851 -0.046063,7.20709 4.35945,-3.9 9.22442,-5.76142 14.0339,-4.87796 12.4973,2.29843 6.41457,18.8138 3.02362,41.1579 -3.38977,22.3417 -2.80512,42.052 -15.3024,39.7548 -3.14764,-0.578741 -5.97048,-2.27953 -8.37875,-4.8567 -1.30039,1.25551 -2.42835,2.17205 -3.4063,2.77914 -8.84646,30.228 -25.4067,53.6386 -46.1788,70.2142l0 21.3213 0 15.7134c5.51221,-1.52717 11.5559,0.851575 14.2146,5.89607l-0.046063 0.022441 21.7146 41.1992c0.839764,0.193701 1.44921,0.393307 1.80945,0.597638 12.3307,4.07008 26.139,7.64646 50.6504,7.64646 22.5768,0 43.0937,9.22796 57.9603,24.0945 14.8665,14.8677 24.0945,35.3847 24.0945,57.9591zm-336.109 -968.318l445.655 0c12.0177,0 21.7606,9.7441 21.7606,21.7618l0 50.4378 243.61 0c12.0177,0 21.7606,9.74292 21.7606,21.7618l0 231.103c0,12.0177 -9.74292,21.7606 -21.7606,21.7606l-58.8934 0 2.85591 97.1339 -140.052 -97.1339 -249.567 0c-12.0177,0 -21.7606,-9.74292 -21.7606,-21.7606l0 -50.439 -69.28 0 -140.051 97.1339 2.85473 -97.1339 -37.1327 0c-12.0189,0 -21.7618,-9.74292 -21.7618,-21.7606l0 -231.103c0,-12.0177 9.74292,-21.7618 21.7618,-21.7618z"/>
   </g>
  </g>
  <path class="fil2" d="M1024 -0.0011811c565.539,0 1024,458.462 1024,1024 0,565.539 -458.462,1024 -1024,1024 -565.539,0 -1024,-458.462 -1024,-1024 0,-565.539 458.462,-1024 1024,-1024z"/>
  <path class="fil3" d="M619.465 484.47l0 231.103c0,12.0177 9.74292,21.7606 21.7606,21.7606l37.1339 0 -2.85591 97.1351 140.052 -97.1351 112.082 0 0 -147.245c0,-24.0284 19.4929,-43.5213 43.5213,-43.5213l137.484 0.759449 0 -62.8571c0,-12.0177 -9.74292,-21.7618 -21.7606,-21.7618l-445.656 0c-12.0177,0 -21.7606,9.7441 -21.7606,21.7618z"/>
  <path class="fil4" d="M1584 1585.29l0 -161.274c0,-23.6008 -9.64843,-45.0496 -25.1906,-60.5918 -15.5421,-15.5421 -36.991,-25.1894 -60.593,-25.1894 -25.624,0 -40.0607,-3.73937 -52.9512,-7.99371 -10.878,-6.163 -237.473,-7.73741 -261.623,0.617717 -3.25394,1.12559 -6.68741,1.88622 -10.2189,2.7437 -5.39292,1.31102 -11.2677,2.45906 -18.0272,3.30827 -6.60591,0.830316 -13.9228,1.32402 -22.2709,1.32402 -23.602,0 -45.0508,9.64607 -60.593,25.1894 -15.5421,15.5421 -25.1894,36.991 -25.1894,60.5918l0 161.274c242.783,0 293.908,0 536.657,0z"/>
  <rect class="fil5" x="1225.48" y="1216" width="180.378" height="146.359"/>
  <path class="fil6" d="M1225.48 1216l180.379 0 0 47.9315c-23.7248,22.0146 -55.4516,47.3221 -90.189,47.3221 -34.7386,0 -66.4654,-25.3075 -90.1902,-47.3221l0 -47.9315z"/>
  <path class="fil7" d="M1288.22 1411.93c2.04921,1.17284 4.16575,2.21457 6.33662,3.11457 6.7689,2.80866 14.0516,4.29567 21.45,4.29567 7.17993,0 14.2642,-1.40788 20.8854,-4.07481 2.20276,-0.887009 4.34882,-1.91457 6.4252,-3.07559l-27.6414 -38.6977 -27.4559 38.4378z"/>
  <path class="fil8" d="M1230.43 1282.98l92.8099 66.039 0.0283465 -0.0366142c5.59371,3.97914 6.72756,11.5087 2.53347,16.8154 -0.133465,0.167717 -0.270473,0.330709 -0.409843,0.491339l-58.0122 77.0516 0.0165354 0.0377953c-0.437008,0.581103 -0.920079,1.11378 -1.43976,1.59685l-78.6851 -103.096c-2.1189,-3.88111 -1.78937,-8.38229 0.497244,-11.8725l22.9028 -43.4563 -0.0484252 -0.0236221c3.12756,-5.93268 10.7327,-8.33741 16.9854,-5.37048 1.04882,0.497244 1.99134,1.11378 2.82166,1.82362z"/>
  <path class="fil8" d="M1400.92 1282.98l-92.8099 66.039 -0.0295276 -0.0366142c-5.59371,3.97914 -6.72638,11.5087 -2.53229,16.8154 0.133465,0.167717 0.269292,0.330709 0.409843,0.491339l58.0111 77.0516 -0.0165354 0.0377953c0.438189,0.581103 0.920079,1.11378 1.43976,1.59685l78.6863 -103.096c2.1189,-3.88111 1.78819,-8.38229 -0.498426,-11.8725l-22.9028 -43.4563 0.0484252 -0.0236221c-3.12638,-5.93268 -10.7315,-8.33741 -16.9854,-5.37048 -1.04764,0.497244 -1.99134,1.11378 -2.82047,1.82362z"/>
  <polygon class="fil7" points="1302.42,1585.29 1328.93,1585.29 1328.93,1413.29 1302.42,1413.29 "/>
  <path class="fil9" d="M1461.51 1063.59l0 50.3292c0,76.0961 -38.0244,124.978 -86.6953,146.511 -18.613,8.23465 -38.6611,12.3532 -58.5804,12.3532 -19.9205,0 -39.9674,-4.11851 -58.5804,-12.3532 -48.5268,-21.4689 -86.465,-70.128 -86.6894,-145.838 43.6063,-8.34568 97.6926,-41.0929 121.681,-83.6138l5.43662 -9.63662 9.1252 5.27244c43.1079,24.9083 105.474,40.8981 154.303,36.9756z"/>
  <path class="fil10" d="M1160.98 1117.5c16.141,-33.2823 -22.4315,-118.952 61.4398,-171.579 17.452,-10.95 40.7256,-8.54174 46.7776,-4.76221 -2.88425,23.7473 2.88071,40.8166 9.82442,63.404 3.42756,11.1508 9.2067,20.4047 16.8142,28.7492l6.45 7.07363 -4.27441 8.78505c-6.55276,13.4669 -17.7662,24.2882 -29.4378,32.5063 -7.35237,5.17559 -17.0114,9.23505 -25.2449,12.4996 -17.5618,6.9626 -66.8658,24.2894 -82.3489,23.3232z"/>
  <path class="fil10" d="M1496.83 1031.01c7.20119,110.953 -267.31,66.9638 -229.992,-84.8823 7.46693,-30.3839 70.6335,-24.1961 107.172,-14.1768 99.3355,27.2386 70.7386,105.658 122.819,99.0591z"/>
  <path class="fil5" d="M1151.56 1090.07c13.0642,-2.40236 26.5299,14.5854 30.0733,37.9441 3.54449,23.3575 -4.17284,44.2406 -17.2382,46.6429 -13.0642,2.40236 -12.4524,-18.2032 -15.9969,-41.5607 -3.54449,-23.3587 -9.90355,-40.624 3.16181,-43.0264z"/>
  <path class="fil5" d="M1479.3 1085.82c-13.0654,-2.40236 -26.5299,14.5854 -30.0744,37.9441 -3.54449,23.3575 4.17402,44.2406 17.2394,46.6429 13.0642,2.40236 12.4524,-18.2032 15.9969,-41.5607 3.54449,-23.3587 9.90237,-40.624 -3.16181,-43.0264z"/>
  <path class="fil10" d="M1171.5 1048.64c0.022441,6.62008 0.132284,40.6996 0.240945,47.2122 0.0791339,4.81654 0.158268,9.53623 0.158268,19.3311 0,16.8165 1.87323,33.1736 5.39764,48.8315 29.5252,30.7843 -16.1977,-84.8422 52.2012,-95.0599 0,0 0.759449,-9.08032 1.9311,-20.315l-59.9292 0z"/>
  <path class="fil10" d="M1464.81 1048.64c-0.022441,6.62008 -0.132284,40.6996 -0.240945,47.2122 -0.0791339,4.81654 -0.158268,9.53623 -0.158268,19.3311 0,16.8165 -1.87323,33.1736 -5.39882,48.8315 -29.524,30.7843 16.1988,-84.8422 -52.2,-95.0599 0,0 -0.759449,-9.08032 -1.9311,-20.315l59.9292 0z"/>
  <path class="fil11" d="M1374.01 556.669l0 231.103c0,12.0177 -9.74292,21.7606 -21.7606,21.7606l-58.8934 0 2.85591 97.1339 -140.052 -97.1339 -249.567 0c-12.0177,0 -21.7606,-9.74292 -21.7606,-21.7606l0 -231.103c0,-12.0189 9.74292,-21.7618 21.7606,-21.7618l445.656 0c12.0177,0 21.7606,9.74292 21.7606,21.7618z"/>
  <path class="fil12" d="M977.336 1585.29l0 -154.265c0,-22.5756 -9.22796,-43.0926 -24.0945,-57.9603 -14.8677,-14.8665 -35.3847,-24.0945 -57.9603,-24.0945 -24.5103,0 -38.3209,-3.57638 -50.6504,-7.64528 -10.4055,-5.89607 -227.153,-7.40197 -250.253,0.589371 -3.11339,1.07717 -6.39804,1.80473 -9.77599,2.62559 -5.15788,1.25315 -10.7787,2.35158 -17.2441,3.16418 -6.3189,0.793701 -13.3169,1.26614 -21.3024,1.26614 -22.5768,0 -43.0937,9.22796 -57.9603,24.0945 -14.8665,14.8665 -24.0945,35.3835 -24.0945,57.9603l0 154.265c232.233,0 281.137,0 513.336,0z"/>
  <rect class="fil5" x="634.398" y="1232.05" width="172.54" height="139.999"/>
  <path class="fil6" d="M634.398 1232.05l172.541 0 0 45.8492c-22.6937,21.0579 -53.0422,45.2658 -86.2713,45.2658 -33.228,0 -63.5764,-24.2079 -86.2701,-45.2658l0 -45.8492z"/>
  <path class="fil13" d="M694.405 1419.47c1.95945,1.12323 3.98386,2.1189 6.06142,2.97992 6.47481,2.68701 13.4398,4.10906 20.5181,4.10906 6.86693,0 13.6429,-1.34646 19.9772,-3.89764 2.10709,-0.848032 4.16103,-1.83071 6.14646,-2.94213l-26.4402 -37.0158 -26.263 36.7666z"/>
  <path class="fil14" d="M639.129 1296.11l88.7764 63.1701 0.0283465 -0.0354331c5.3504,3.8067 6.43465,11.0079 2.42244,16.0843 -0.127559,0.16063 -0.258662,0.316536 -0.392126,0.470079l-55.4906 73.7032 0.0153543 0.0366142c-0.418111,0.5563 -0.879922,1.06536 -1.37717,1.52835l-75.267 -98.6162c-2.02677,-3.71339 -1.71024,-8.01851 0.475985,-11.3563l21.9083 -41.5689 -0.046063 -0.022441c2.99055,-5.6752 10.265,-7.97481 16.2473,-5.1378 1.00276,0.475985 1.90394,1.06536 2.69882,1.74449z"/>
  <path class="fil14" d="M802.207 1296.11l-88.7764 63.1701 -0.0283465 -0.0354331c-5.3504,3.8067 -6.43465,11.0079 -2.42244,16.0843 0.127559,0.16063 0.258662,0.316536 0.392126,0.470079l55.4906 73.7032 -0.0153543 0.0366142c0.418111,0.5563 0.879922,1.06536 1.37717,1.52835l75.2658 -98.6162c2.02795,-3.71339 1.71142,-8.01851 -0.474804,-11.3563l-21.9083 -41.5689 0.046063 -0.022441c-2.99055,-5.6752 -10.265,-7.97481 -16.2473,-5.1378 -1.00276,0.475985 -1.90512,1.06536 -2.69882,1.74449z"/>
  <polygon class="fil13" points="707.99,1585.29 733.346,1585.29 733.346,1420.77 707.99,1420.77 "/>
  <path class="fil9" d="M860.169 1086.26l0 48.1418c0,72.7902 -36.3721,119.548 -82.9288,140.145 -17.8028,7.87678 -36.9803,11.8169 -56.0339,11.8169 -19.0547,0 -38.2311,-3.94016 -56.0351,-11.8169 -46.4174,-20.5358 -82.7079,-67.0808 -82.9229,-139.501 41.7118,-7.98308 93.4477,-39.3071 116.394,-79.9796l5.2004 -9.21851 8.72835 5.04331c41.2347,23.8264 100.891,39.1205 147.598,35.3693z"/>
  <path class="fil15" d="M572.696 1137.83c15.4394,-31.8366 -17.0988,-116.691 63.1288,-167.029 16.6937,-10.4752 34.5969,-5.26418 40.3866,-1.64882 -2.75906,22.7162 2.75433,39.0425 9.39804,60.6485 3.27756,10.6665 8.80512,19.5189 16.0831,27.5008l6.1689 6.76536 -4.0878 8.40355c-6.26812,12.8811 -16.9949,23.2323 -28.1587,31.0937 -7.03347,4.95118 -16.2732,8.83347 -24.1477,11.9563 -16.8,6.66024 -63.9603,23.2347 -78.7713,22.3099z"/>
  <path class="fil15" d="M893.956 1055.1c6.88819,106.132 -255.694,64.056 -219.998,-81.1938 7.14331,-29.0634 43.3512,-31.8177 78.3024,-22.2331 95.0198,26.0551 91.878,109.74 141.696,103.427z"/>
  <path class="fil5" d="M563.69 1111.59c12.4973,-2.29725 25.3772,13.9524 28.767,36.2953 3.39095,22.3429 -3.99213,42.3189 -16.4894,44.6162 -12.4961,2.29843 -11.9114,-17.4118 -15.3012,-39.7548 -3.39095,-22.3429 -9.47363,-38.8583 3.02362,-41.1567z"/>
  <path class="fil5" d="M877.181 1107.53c-12.4973,-2.29843 -25.3772,13.9512 -28.767,36.2941 -3.39095,22.3429 3.99213,42.3189 16.4894,44.6174 12.4973,2.29725 11.9114,-17.413 15.3012,-39.7559 3.39095,-22.3429 9.47363,-38.8583 -3.02362,-41.1555z"/>
  <path class="fil15" d="M582.763 1071.96c0.0212599,6.33189 0.126378,38.9303 0.230315,45.1607 0.0755906,4.60748 0.151181,9.12166 0.151181,18.4914 0,16.0854 1.79173,31.7315 5.16378,46.7091 28.2414,29.4461 -15.4949,-81.156 49.9323,-90.9296 0,0 0.726379,-8.68465 1.84725,-19.4315l-57.3248 0z"/>
  <path class="fil15" d="M863.329 1071.96c-0.022441,6.33189 -0.127559,38.9303 -0.230315,45.1607 -0.0767717,4.60748 -0.151181,9.12166 -0.151181,18.4914 0,16.0854 -1.79173,31.7315 -5.16378,46.7091 -28.2425,29.4461 15.4937,-81.156 -49.9323,-90.9296 0,0 -0.72756,-8.68465 -1.84725,-19.4315l57.3248 0z"/>
  <polygon class="fil16" points="949.054,705.641 1160.24,705.641 1160.24,683.88 949.054,683.88 "/>
  <polygon class="fil16" points="949.054,649.308 1309.8,649.308 1309.8,627.547 949.054,627.547 "/>
 </g>
</svg>
