<?xml version="1.0" encoding="iso-8859-1"?>
<!-- Generator: Adobe Illustrator 19.0.0, SVG Export Plug-In . SVG Version: 6.00 Build 0)  -->
<svg xmlns="http://www.w3.org/2000/svg" xmlns:xlink="http://www.w3.org/1999/xlink" version="1.1" id="Layer_1" x="0px" y="0px" viewBox="0 0 511.999 511.999" style="enable-background:new 0 0 511.999 511.999;" xml:space="preserve">
<g>
	<rect x="153.081" y="385.254" style="fill:#FCD170;" width="42.489" height="118.629"/>
	<rect x="316.416" y="385.254" style="fill:#FCD170;" width="42.5" height="118.629"/>
</g>
<g>
	<rect x="153.081" y="385.254" style="fill:#F4AC45;" width="28.874" height="118.629"/>
	<rect x="316.416" y="385.254" style="fill:#F4AC45;" width="28.874" height="118.629"/>
</g>
<path style="fill:#51616B;" d="M153.082,416.24H93.323c-8.802,0-15.935,7.135-15.935,15.935v46.479  c0,8.801,7.135,15.935,15.935,15.935h59.759V416.24z"/>
<path style="fill:#42555E;" d="M106.261,478.655v-46.479c0-8.802,7.135-15.935,15.935-15.935H93.323  c-8.802,0-15.935,7.135-15.935,15.935v46.479c0,8.801,7.135,15.935,15.935,15.935h28.874  C113.396,494.59,106.261,487.455,106.261,478.655z"/>
<path style="fill:#A67A4B;" d="M401.412,144.479v-22.406c0-33.955-27.528-61.484-61.485-61.484H172.071  c-33.957,0-61.483,27.529-61.483,61.484v294.166h42.494v-30.985h42.494v30.985h120.845v-30.985h42.496v30.985h42.494V171.521"/>
<path style="fill:#996B42;" d="M200.944,60.59h-28.874c-33.957,0-61.483,27.529-61.483,61.484V416.24h28.874V122.073  C139.462,88.119,166.988,60.59,200.944,60.59z"/>
<path style="fill:#FF9F34;" d="M401.412,122.073c0-33.955-27.528-61.484-61.485-61.484H172.071  c-33.957,0-61.483,27.529-61.483,61.484v101.031c12.34,8.596,26.654,16.089,42.494,22.211v-25.614h42.494v37.894  c19.018,3.842,39.325,5.928,60.422,5.928c21.099,0,41.404-2.087,60.422-5.928v-37.893h42.496v25.614  c15.841-6.123,30.152-13.616,42.494-22.212"/>
<path style="fill:#D6D6D6;" d="M281.765,103.726v21.125c0,7.701,6.242,13.944,13.944,13.944c7.701,0,13.944-6.242,13.944-13.944  v-21.125H281.765z"/>
<g>
	<path style="fill:#FF9F34;" d="M454.531,303.487V246.26c0-8.801-7.135-15.935-15.935-15.935h-37.183v154.93h37.183   c8.802,0,15.935-7.136,15.935-15.935v-38.789"/>
	<path style="fill:#FF9F34;" d="M110.588,230.325H73.404c-8.802,0-15.935,7.136-15.935,15.935V369.32   c0,8.801,7.135,15.935,15.935,15.935h37.183V230.325z"/>
</g>
<path style="fill:#FCD170;" d="M57.469,246.26v30.545h53.118v-46.481H73.404C64.604,230.325,57.469,237.46,57.469,246.26z"/>
<path style="fill:#F28920;" d="M87.593,369.32V246.26c0-8.801,7.135-15.935,15.935-15.935H73.403  c-8.802,0-15.935,7.136-15.935,15.935V369.32c0,8.801,7.135,15.935,15.935,15.935h30.125  C94.728,385.255,87.593,378.119,87.593,369.32z"/>
<path style="fill:#F4AC45;" d="M103.53,230.325H73.404c-8.802,0-15.935,7.136-15.935,15.935v30.545h30.125V246.26  C87.593,237.46,94.728,230.325,103.53,230.325z"/>
<path style="fill:#FCD170;" d="M438.596,230.325h-37.183v46.481h53.118v-30.545C454.531,237.46,447.396,230.325,438.596,230.325z"/>
<g>
	<rect x="153.081" y="219.702" style="fill:#D6D6D6;" width="42.489" height="57.103"/>
	<rect x="316.416" y="219.702" style="fill:#D6D6D6;" width="42.5" height="57.103"/>
</g>
<g>
	<path style="fill:#51616B;" d="M172.071,60.59h23.505V8.113h-42.494v55.48C159.063,61.651,165.441,60.59,172.071,60.59z"/>
	<path style="fill:#51616B;" d="M339.927,60.59c6.63,0,13.007,1.061,18.991,3.003V8.113h-42.496V60.59H339.927z"/>
	<polyline style="fill:#51616B;" points="263.571,416.24 195.577,416.24 195.577,494.59 316.421,494.59 316.421,416.24    291.695,416.24  "/>
	<path style="fill:#51616B;" d="M418.675,416.24h-59.757v78.351h59.757c8.802,0,15.935-7.136,15.935-15.935v-46.479   C434.611,423.374,427.476,416.24,418.675,416.24z"/>
</g>
<path style="fill:#F28920;" d="M139.462,223.105v-57.894v-43.137c0-33.955,27.526-61.484,61.483-61.484h-28.874  c-33.957,0-61.483,27.529-61.483,61.484v101.031c8.691,6.055,18.38,11.548,28.874,16.415V223.105z"/>
<g>
	<rect x="153.081" y="219.702" style="fill:#C6C2C2;" width="28.874" height="57.103"/>
	<rect x="316.416" y="219.702" style="fill:#C6C2C2;" width="28.874" height="57.103"/>
</g>
<g>
	<path style="fill:#42555E;" d="M181.956,8.113h-28.874v55.48c5.981-1.942,12.359-3.003,18.989-3.003h9.886V8.113H181.956z"/>
	<path style="fill:#42555E;" d="M345.296,60.59V8.113h-28.874V60.59h23.505c6.63,0,13.007,1.061,18.991,3.003V60.59H345.296z"/>
</g>
<g>
	<path style="fill:#231F20;" d="M295.709,146.907c12.161,0,22.057-9.894,22.057-22.057v-13.134c3.84-0.641,6.769-3.97,6.769-7.993   c0-4.481-3.631-8.113-8.113-8.113h-6.769h-27.887h-86.189c-4.481,0-8.113,3.631-8.113,8.113s3.631,8.113,8.113,8.113h78.076v13.013   C273.652,137.013,283.547,146.907,295.709,146.907z M301.54,111.839v13.013c0,3.216-2.616,5.831-5.831,5.831   s-5.831-2.616-5.831-5.831v-13.013H301.54z"/>
	<path style="fill:#231F20;" d="M438.596,222.212h-29.07v-50.69c0-4.481-3.631-8.113-8.113-8.113s-8.113,3.631-8.113,8.113v47.278   c-8.007,5.275-16.798,10.075-26.269,14.339v-13.438c0-4.481-3.631-8.113-8.113-8.113h-42.496c-4.481,0-8.113,3.631-8.113,8.113   v31.176c-16.951,3.009-34.515,4.532-52.309,4.532s-35.358-1.523-52.309-4.532v-31.176c0-4.481-3.631-8.113-8.113-8.113h-42.494   c-4.481,0-8.113,3.631-8.113,8.113v13.438c-9.472-4.265-18.265-9.063-26.269-14.338v-96.729c0-23.784,15.641-43.977,37.174-50.851   c0.334-0.107,0.671-0.206,1.007-0.305c0.42-0.124,0.842-0.246,1.266-0.36c0.361-0.098,0.724-0.194,1.087-0.283   c0.437-0.108,0.878-0.208,1.32-0.305c0.336-0.074,0.671-0.154,1.008-0.221c0.737-0.147,1.478-0.281,2.224-0.398   c0.27-0.042,0.541-0.074,0.811-0.112c0.542-0.077,1.085-0.148,1.631-0.208c0.303-0.034,0.607-0.062,0.911-0.09   c0.552-0.051,1.105-0.093,1.661-0.127c0.267-0.016,0.533-0.035,0.802-0.047c0.818-0.038,1.64-0.063,2.466-0.063h23.505h34.656   h51.533h34.656h23.505c0.828,0,1.648,0.025,2.466,0.063c0.267,0.012,0.534,0.031,0.802,0.047c0.556,0.034,1.111,0.076,1.663,0.127   c0.304,0.028,0.608,0.056,0.911,0.09c0.547,0.059,1.092,0.132,1.634,0.209c0.269,0.038,0.54,0.069,0.808,0.111   c0.749,0.117,1.491,0.251,2.228,0.399c0.332,0.067,0.662,0.145,0.992,0.217c0.449,0.098,0.897,0.2,1.34,0.31   c0.357,0.089,0.713,0.183,1.068,0.278c0.435,0.118,0.868,0.241,1.298,0.37c0.326,0.096,0.65,0.193,0.974,0.295   c21.541,6.871,37.188,27.067,37.188,50.856v22.406c0,4.481,3.631,8.113,8.113,8.113s8.113-3.631,8.113-8.113v-22.406   c0-28.766-17.544-53.512-42.494-64.101V8.113c0-4.481-3.631-8.113-8.113-8.113H316.42c-4.481,0-8.113,3.631-8.113,8.113v44.364   h-18.431V42.044c0-15.128-12.309-27.437-27.437-27.437h-12.883c-15.129,0-27.437,12.309-27.437,27.437v10.433h-18.431V8.113   c0-4.481-3.631-8.113-8.113-8.113h-42.494c-4.481,0-8.113,3.631-8.113,8.113v49.859c-24.95,10.589-42.494,35.334-42.494,64.102   v100.138h-29.07c-13.26,0-24.048,10.789-24.048,24.048v30.545v92.514c0,13.26,10.789,24.048,24.048,24.048h29.07v14.76h-9.152   c-13.26,0-24.048,10.789-24.048,24.048v46.479c0,13.26,10.789,24.048,24.048,24.048h51.646v1.184c0,4.481,3.631,8.113,8.113,8.113   h42.494c4.481,0,8.113-3.631,8.113-8.113v-1.184h104.62v1.184c0,4.481,3.631,8.113,8.113,8.113h42.496   c4.481,0,8.113-3.631,8.113-8.113v-1.184h51.644c13.26,0,24.048-10.789,24.048-24.048v-46.479c0-13.26-10.789-24.048-24.048-24.048   h-9.15v-14.76h29.07c13.26,0,24.048-10.789,24.048-24.048v-38.789c0-4.481-3.631-8.113-8.113-8.113s-8.113,3.631-8.113,8.113   v38.789c0,4.314-3.509,7.823-7.823,7.823h-29.07v-92.225h36.893v18.569c0,4.481,3.631,8.113,8.113,8.113s8.113-3.631,8.113-8.113   v-26.682v-30.545C462.644,233,451.855,222.212,438.596,222.212z M324.534,16.225h26.271V53.33c-0.02-0.003-0.039-0.005-0.058-0.008   c-0.374-0.058-0.752-0.104-1.128-0.156c-0.689-0.097-1.379-0.188-2.071-0.264c-0.398-0.044-0.798-0.081-1.199-0.118   c-0.718-0.067-1.438-0.121-2.159-0.164c-0.349-0.022-0.697-0.045-1.047-0.062c-1.07-0.05-2.142-0.081-3.216-0.081h-15.392V16.225z    M238.346,42.044c0-6.183,5.029-11.212,11.212-11.212h12.883c6.183,0,11.212,5.029,11.212,11.212v10.433h-35.307V42.044H238.346z    M161.194,53.329V16.225h26.269v36.252h-15.392c-1.074,0-2.146,0.032-3.216,0.081c-0.349,0.016-0.696,0.04-1.044,0.062   c-0.725,0.044-1.447,0.098-2.169,0.165c-0.395,0.036-0.79,0.074-1.183,0.116c-0.713,0.078-1.423,0.171-2.133,0.272   c-0.352,0.05-0.705,0.091-1.056,0.146C161.245,53.323,161.22,53.325,161.194,53.329z M324.534,227.814h26.271v17.502v23.376   h-26.271v-11.097V227.814z M161.194,227.814h26.269v29.781v11.097h-26.269v-23.376V227.814z M65.582,246.26   c0-4.314,3.509-7.823,7.823-7.823h29.07v30.256H65.582V246.26z M73.404,377.143c-4.314,0-7.823-3.509-7.823-7.823v-84.401h36.893   v92.225h-29.07V377.143z M93.323,486.478c-4.314,0-7.823-3.509-7.823-7.823v-46.479c0-4.314,3.509-7.823,7.823-7.823h17.265h34.381   v62.126H93.323V486.478z M187.464,495.775h-26.269v-1.184v-78.351v-22.872h26.269v22.872v78.351V495.775z M350.806,495.775h-26.271   v-1.184v-78.351v-22.872h26.271v22.872v78.351V495.775z M426.498,432.176v46.479c0,4.314-3.509,7.823-7.823,7.823h-51.644v-62.126   h34.381h17.263C422.989,424.353,426.498,427.862,426.498,432.176z M367.031,408.128v-22.872c0-4.481-3.631-8.113-8.113-8.113   h-42.496c-4.481,0-8.113,3.631-8.113,8.113v22.872h-16.614c-4.481,0-8.113,3.631-8.113,8.113c0,4.481,3.631,8.113,8.113,8.113   h16.614v62.126H203.69v-62.126h59.881c4.481,0,8.113-3.631,8.113-8.113c0-4.481-3.631-8.113-8.113-8.113H203.69v-22.872   c0-4.481-3.631-8.113-8.113-8.113h-42.494c-4.481,0-8.113,3.631-8.113,8.113v22.872h-26.269v-22.872v-108.45v-38.953   c8.173,4.758,16.948,9.092,26.269,12.945v26.008c0,4.481,3.631,8.113,8.113,8.113h42.494c4.481,0,8.113-3.631,8.113-8.113v-9.482   c17.006,2.851,34.552,4.314,52.309,4.314s35.303-1.461,52.309-4.314v9.482c0,4.481,3.631,8.113,8.113,8.113h42.496   c4.481,0,8.113-3.631,8.113-8.113v-26.009c9.32-3.853,18.094-8.187,26.269-12.946v38.955v108.45v22.872H367.031z M409.525,268.693   v-30.256h29.07c4.314,0,7.823,3.509,7.823,7.823v22.432h-36.893V268.693z"/>
</g>
<g>
</g>
<g>
</g>
<g>
</g>
<g>
</g>
<g>
</g>
<g>
</g>
<g>
</g>
<g>
</g>
<g>
</g>
<g>
</g>
<g>
</g>
<g>
</g>
<g>
</g>
<g>
</g>
<g>
</g>
</svg>
