<?xml version="1.0" encoding="UTF-8"?>
<!DOCTYPE svg PUBLIC "-//W3C//DTD SVG 1.1//EN" "http://www.w3.org/Graphics/SVG/1.1/DTD/svg11.dtd">
<!-- Creator: CorelDRAW -->
<svg xmlns="http://www.w3.org/2000/svg" xml:space="preserve" width="6.82666in" height="6.82666in" style="shape-rendering:geometricPrecision; text-rendering:geometricPrecision; image-rendering:optimizeQuality; fill-rule:evenodd; clip-rule:evenodd"
viewBox="0 0 6.82666 6.82666"
 xmlns:xlink="http://www.w3.org/1999/xlink"
 version="1.1">
 <defs>
  <style type="text/css">
   <![CDATA[
    .fil9 {fill:none}
    .fil7 {fill:#00A79D}
    .fil0 {fill:#222025}
    .fil2 {fill:#2D2D2D}
    .fil3 {fill:#326FB7}
    .fil6 {fill:#44B649}
    .fil5 {fill:#DA3127}
    .fil1 {fill:#E6E7E8}
    .fil4 {fill:#F58120}
    .fil8 {fill:#F8B53C}
   ]]>
  </style>
 </defs>
 <g id="Layer_x0020_1">
  <metadata id="CorelCorpID_0Corel-Layer"/>
  <g id="_566370784">
   <g id="Guides">
   </g>
   <g id="Layer_2">
   </g>
   <g id="Layer_3">
   </g>
   <g id="Layer_4">
   </g>
   <g id="Layer_5">
   </g>
   <g id="Layer_6">
   </g>
   <g id="Layer_7">
   </g>
   <g id="Layer_8">
   </g>
   <g id="Layer_9">
    <g>
     <g>
      <path id="_590424272" class="fil0" d="M4.66091 5.89333l-2.49513 0c-0.120768,0 -0.218665,-0.0979016 -0.218665,-0.218665l0 -4.52267c0,-0.120768 0.0979016,-0.218665 0.218665,-0.218665l2.4951 -3.93701e-006c0.120768,0 0.218665,0.0979016 0.218665,0.218665l3.93701e-006 4.52267c0,0.120768 -0.0979016,0.218669 -0.218634,0.218669z"/>
      <rect id="_590424056" class="fil1" x="2.09441" y="1.338" width="2.6379" height="3.84213"/>
      <circle id="_590423336" class="fil2" cx="3.41335" cy="5.53673" r="0.193433"/>
      <g>
       <circle id="_590423984" class="fil2" cx="2.94948" cy="1.13567" r="0.0483661"/>
       <path id="_590423864" class="fil2" d="M3.88178 1.18403l-0.656634 0c-0.0242008,0 -0.0437992,-0.0195984 -0.0437992,-0.0437992l0 -0.00293307c0,-0.0242008 0.0195984,-0.0437992 0.0437992,-0.0437992l0.656602 0c0.0242008,0 0.0437992,0.0195984 0.0437992,0.0437992l0 0.00293307c3.14961e-005,0.0241654 -0.0196024,0.0437992 -0.0437677,0.0437992z"/>
      </g>
     </g>
     <path id="_590422808" class="fil3" d="M3.03351 2.4374l-0.281799 0c-0.0663346,0 -0.120098,-0.0537677 -0.120098,-0.120098l0 -0.281799c0,-0.0663346 0.0537677,-0.120098 0.120098,-0.120098l0.281799 -3.93701e-006c0.0663346,0 0.120098,0.0537677 0.120098,0.120098l0 0.281799c3.93701e-006,0.0663346 -0.0537638,0.120102 -0.120098,0.120102z"/>
     <path id="_590423240" class="fil4" d="M4.07498 2.4374l-0.281799 0c-0.0663346,0 -0.120098,-0.0537677 -0.120098,-0.120098l0 -0.281799c0,-0.0663346 0.0537677,-0.120098 0.120098,-0.120098l0.281799 -3.93701e-006c0.0663346,0 0.120098,0.0537677 0.120098,0.120098l0 0.281799c0,0.0663346 -0.0537677,0.120102 -0.120098,0.120102z"/>
     <path id="_590422520" class="fil5" d="M3.03351 3.52006l-0.281799 0c-0.0663346,0 -0.120098,-0.0537677 -0.120098,-0.120098l0 -0.281799c0,-0.0663346 0.0537677,-0.120098 0.120098,-0.120098l0.281799 -3.93701e-006c0.0663346,0 0.120098,0.0537677 0.120098,0.120098l0 0.281799c3.93701e-006,0.0663386 -0.0537638,0.120102 -0.120098,0.120102z"/>
     <path id="_590422904" class="fil6" d="M4.07498 3.52006l-0.281799 0c-0.0663346,0 -0.120098,-0.0537677 -0.120098,-0.120098l0 -0.281799c0,-0.0663346 0.0537677,-0.120098 0.120098,-0.120098l0.281799 -3.93701e-006c0.0663346,0 0.120098,0.0537677 0.120098,0.120098l0 0.281799c0,0.0663386 -0.0537677,0.120102 -0.120098,0.120102z"/>
     <path id="_590422304" class="fil7" d="M3.03351 4.60273l-0.281799 0c-0.0663346,0 -0.120098,-0.0537677 -0.120098,-0.120098l0 -0.281799c0,-0.0663346 0.0537677,-0.120098 0.120098,-0.120098l0.281799 -3.93701e-006c0.0663346,0 0.120098,0.0537677 0.120098,0.120098l0 0.281799c3.93701e-006,0.0663386 -0.0537638,0.120102 -0.120098,0.120102z"/>
     <path id="_590421824" class="fil8" d="M4.07498 4.60273l-0.281799 0c-0.0663346,0 -0.120098,-0.0537677 -0.120098,-0.120098l0 -0.281799c0,-0.0663346 0.0537677,-0.120098 0.120098,-0.120098l0.281799 -3.93701e-006c0.0663346,0 0.120098,0.0537677 0.120098,0.120098l0 0.281799c0,0.0663386 -0.0537677,0.120102 -0.120098,0.120102z"/>
    </g>
   </g>
   <g id="Layer_10">
   </g>
   <g id="Layer_11">
   </g>
   <g id="Layer_12">
   </g>
   <g id="Layer_13">
   </g>
   <g id="Layer_14">
   </g>
   <g id="Layer_15">
   </g>
   <g id="Layer_16">
   </g>
   <g id="Layer_17">
   </g>
   <g id="Layer_18">
   </g>
   <g id="Layer_19">
   </g>
   <g id="Layer_20">
   </g>
   <g id="Layer_21">
   </g>
   <g id="Layer_22">
   </g>
   <g id="Layer_23">
   </g>
   <g id="Layer_24">
   </g>
   <g id="Layer_25">
   </g>
   <g id="Layer_26">
   </g>
  </g>
 </g>
 <rect class="fil9" width="6.82666" height="6.82666"/>
</svg>
