<svg id="SvgjsSvg1001" width="288" height="288" xmlns="http://www.w3.org/2000/svg" version="1.1" xmlns:xlink="http://www.w3.org/1999/xlink" xmlns:svgjs="http://svgjs.com/svgjs"><defs id="SvgjsDefs1002"></defs><g id="SvgjsG1008"><svg xmlns="http://www.w3.org/2000/svg" viewBox="0 0 48 48" width="288" height="288"><g data-name="Pos Terminal" fill="#000000" class="color000 svgShape"><path fill="#dad7e5" d="M33,4v7H13c0-7.85.24-8.3-.73-9.27A2.5,2.5,0,0,0,10.5,1H30A3,3,0,0,1,33,4Z" class="colordad7e5 svgShape"></path><path fill="#c6c3d8" d="M13,3.5V7H8V3.5a2.5,2.5,0,0,1,5,0Z" class="colorc6c3d8 svgShape"></path><path fill="#edebf2" d="M33,4V8H18a2,2,0,0,1-2-2c0-2.39.15-3.53-.61-5H30A3,3,0,0,1,33,4Z" class="coloredebf2 svgShape"></path><path fill="#daa610" d="M36,14c0,32.53.06,30.23-.13,30.87A3,3,0,0,1,33,47H13a3,3,0,0,1-3-3V14a3,3,0,0,1,3-3H33A3,3,0,0,1,36,14Z" class="color374f68 svgShape"></path><path fill="#ffbf0b" d="M36,14V44H16a3,3,0,0,1-3-3V11H33A3,3,0,0,1,36,14Z" class="color425b72 svgShape"></path><rect width="18" height="9" x="14" y="15" fill="#9fdbf3" class="color9fdbf3 svgShape"></rect><path fill="#b2e5fb" d="M32,15v6H23a6,6,0,0,1-6-6Z" class="colorb2e5fb svgShape"></path><rect width="18" height="15" x="14" y="28" fill="#dad7e5" class="colordad7e5 svgShape"></rect><path fill="#edebf2" d="M32,28V41H20a3,3,0,0,1-3-3V28Z" class="coloredebf2 svgShape"></path><path fill="#ffbf0b" d="M21 27V44H19V27A1 1 0 0121 27zM27 27V44H25V27A1 1 0 0127 27z" class="color425b72 svgShape"></path><path fill="#ffbf0b" d="M33 39H13V37H33A1 1 0 0133 39zM33 34H13V32H33A1 1 0 0133 34z" class="color425b72 svgShape"></path><rect width="4" height="26" x="36" y="16" fill="#daa610" class="color374f68 svgShape"></rect><path fill="#ffbf0b" d="M40,16c0,23.58-.1,23,0,23a2,2,0,0,1-2-2V16Z" class="color425b72 svgShape"></path><path fill="#c6c3d8" d="M29,7H17a1,1,0,0,1,0-2H29A1,1,0,0,1,29,7Z" class="colorc6c3d8 svgShape"></path></g></svg></g></svg>