<svg id="SvgjsSvg1001" width="288" height="288" xmlns="http://www.w3.org/2000/svg" version="1.1" xmlns:xlink="http://www.w3.org/1999/xlink" xmlns:svgjs="http://svgjs.com/svgjs"><defs id="SvgjsDefs1002"></defs><g id="SvgjsG1008"><svg xmlns="http://www.w3.org/2000/svg" id="Layer_1" x="0" y="0" enable-background="new 0 0 256 256" version="1.1" viewBox="0 0 256 256" xml:space="preserve" width="288" height="288"><path fill="#ffbf0b" d="M192.722,87.158H22.445c-3.169,0-5.738,2.569-5.738,5.738v14.656c0,3.169,2.569,5.737,5.738,5.737h170.278
				c3.169,0,5.738-2.569,5.738-5.737V92.896C198.46,89.727,195.891,87.158,192.722,87.158z" class="coloref6d7a svgShape"></path><path fill="#3a312a" d="M192.723,85.658H66.944c-0.828,0-1.5,0.671-1.5,1.5c0,0.829,0.672,1.5,1.5,1.5h125.778
				c2.337,0,4.237,1.901,4.237,4.238v14.656c0,2.337-1.9,4.238-4.237,4.238H22.444c-2.337,0-4.238-1.901-4.238-4.238V92.896
				c0-2.337,1.901-4.238,4.238-4.238h29.802c0.828,0,1.5-0.671,1.5-1.5c0-0.829-0.672-1.5-1.5-1.5H22.444
				c-3.991,0-7.238,3.247-7.238,7.238v14.656c0,3.991,3.247,7.238,7.238,7.238h170.278c3.99,0,7.237-3.247,7.237-7.238V92.896
				C199.96,88.905,196.713,85.658,192.723,85.658z" class="color3a312a svgShape"></path><path fill="#ffbf0b" d="M26.854,113.29v119.893c0,3.528,2.86,6.388,6.388,6.388h145.977c3.528,0,6.388-2.86,6.388-6.388V113.29
				H26.854z" class="coloref6d7a svgShape"></path><path fill="#3a312a" d="M185.606,111.79H26.854c-0.828,0-1.5,0.671-1.5,1.5v24.006c0,0.829,0.672,1.5,1.5,1.5s1.5-0.671,1.5-1.5
				V114.79h155.752v118.393c0,2.695-2.192,4.888-4.888,4.888H33.242c-2.695,0-4.888-2.192-4.888-4.888v-81.299
				c0-0.829-0.672-1.5-1.5-1.5s-1.5,0.671-1.5,1.5v81.299c0,4.349,3.538,7.888,7.888,7.888h145.977c4.35,0,7.888-3.539,7.888-7.888
				V113.29C187.106,112.461,186.435,111.79,185.606,111.79z" class="color3a312a svgShape"></path><rect width="60.788" height="26.132" x="78.004" y="87.158" fill="#f4ff53" class="colord6df58 svgShape"></rect><path fill="#3a312a" d="M138.793,85.658H78.004c-0.828,0-1.5,0.671-1.5,1.5v26.132c0,0.829,0.672,1.5,1.5,1.5h60.789
				c0.828,0,1.5-0.671,1.5-1.5V87.158C140.293,86.33,139.621,85.658,138.793,85.658z M137.293,111.79H79.504V88.658h57.789V111.79z" class="color3a312a svgShape"></path><polygon fill="#f4ff53" points="78.004 113.307 78.004 153.584 96.445 140.543 102.693 153.584 110.164 146.792 118.858 153.584 128.367 146.045 138.793 153.584 138.793 113.307" class="colord6df58 svgShape"></polygon><path fill="#3a312a" d="M138.793,111.808H78.004c-0.828,0-1.5,0.671-1.5,1.5v40.276c0,0.561,0.313,1.074,0.811,1.332
				c0.497,0.258,1.099,0.217,1.556-0.107l16.989-12.015l5.481,11.438c0.205,0.427,0.6,0.733,1.064,0.824
				c0.096,0.018,0.192,0.028,0.288,0.028c0.37,0,0.73-0.137,1.009-0.39l6.535-5.941l7.697,6.014
				c0.545,0.425,1.313,0.424,1.855-0.007l8.619-6.833l9.505,6.873c0.458,0.331,1.06,0.376,1.562,0.121
				c0.502-0.256,0.817-0.772,0.817-1.336v-40.276C140.293,112.479,139.621,111.808,138.793,111.808z M137.293,150.648l-8.047-5.819
				c-0.544-0.394-1.284-0.378-1.811,0.04l-8.584,6.806l-7.764-6.065c-0.272-0.212-0.599-0.318-0.924-0.318
				c-0.362,0-0.724,0.131-1.009,0.39l-5.98,5.437l-5.378-11.224c-0.19-0.398-0.548-0.692-0.976-0.803
				c-0.427-0.111-0.882-0.028-1.243,0.227l-16.074,11.367v-35.878h57.789V150.648z" class="color3a312a svgShape"></path><path fill="#ffbf0b" d="M93.116,214.168H45.708c-1.951,0-3.532,1.581-3.532,3.532v3.804c0,1.951,1.581,3.532,3.532,3.532h47.408
				c1.951,0,3.532-1.581,3.532-3.532V217.7C96.648,215.75,95.067,214.168,93.116,214.168z" class="color87796f svgShape"></path><path fill="#3a312a" d="M93.116,212.669H45.708c-2.774,0-5.031,2.257-5.031,5.032v3.804c0,2.774,2.257,5.032,5.031,5.032h47.408
				c2.774,0,5.032-2.257,5.032-5.032V217.7C98.148,214.926,95.891,212.669,93.116,212.669z M95.148,221.504
				c0,1.12-0.912,2.032-2.032,2.032H45.708c-1.12,0-2.031-0.912-2.031-2.032V217.7c0-1.12,0.911-2.032,2.031-2.032h47.408
				c1.12,0,2.032,0.912,2.032,2.032V221.504z" class="color3a312a svgShape"></path><path fill="#f4ff53" d="M47.141,26.106c-0.974,11.564-13.025,13.39-13.025,13.39c10.347,0.487,12.925,14.059,12.925,14.059
				c0.221-9.677,13.321-14.202,13.321-14.202C50.55,38.766,47.141,26.106,47.141,26.106z" class="colord6df58 svgShape"></path><path fill="#3a312a" d="M60.453,37.855c-8.604-0.514-11.832-12.024-11.863-12.14c-0.191-0.702-0.849-1.165-1.584-1.102
				c-0.725,0.066-1.298,0.642-1.359,1.367c-0.859,10.215-11.313,11.963-11.754,12.032c-0.763,0.115-1.313,0.79-1.273,1.561
				c0.04,0.77,0.657,1.384,1.428,1.421c9.027,0.425,11.498,12.718,11.521,12.842c0.138,0.711,0.76,1.217,1.473,1.217
				c0.042,0,0.084-0.002,0.126-0.005c0.765-0.064,1.357-0.693,1.375-1.459c0.193-8.508,12.191-12.777,12.313-12.819
				c0.676-0.235,1.092-0.914,0.994-1.623C61.75,38.439,61.167,37.898,60.453,37.855z M46.887,48.201
				c-1.356-3.13-3.709-6.907-7.587-8.876c2.932-1.405,6.409-3.913,8.202-8.273c1.551,3.071,4.199,6.88,8.334,8.722
				C52.828,41.414,48.913,44.179,46.887,48.201z" class="color3a312a svgShape"></path><path fill="#f4ff53" d="M25.442,43.087c-0.689,8.179-9.212,9.471-9.212,9.471c7.318,0.344,9.142,9.944,9.142,9.944
				c0.156-6.845,9.422-10.046,9.422-10.046C27.853,52.041,25.442,43.087,25.442,43.087z" class="colord6df58 svgShape"></path><path fill="#3a312a" d="M34.884,50.958c-5.766-0.345-7.972-8.185-7.994-8.264c-0.189-0.702-0.856-1.16-1.581-1.102
				c-0.726,0.065-1.3,0.643-1.361,1.368c-0.578,6.871-7.646,8.067-7.941,8.114c-0.763,0.115-1.313,0.79-1.273,1.561
				c0.04,0.77,0.657,1.384,1.428,1.421c6.034,0.284,7.723,8.643,7.738,8.725c0.136,0.712,0.759,1.22,1.473,1.22
				c0.041,0,0.083-0.002,0.125-0.005c0.765-0.063,1.358-0.694,1.376-1.461c0.13-5.709,8.331-8.634,8.412-8.662
				c0.676-0.234,1.093-0.913,0.996-1.622C36.183,51.543,35.598,51.002,34.884,50.958z M25.299,57.754
				c-0.924-1.886-2.34-3.947-4.446-5.28c1.855-1.041,3.697-2.629,4.87-4.916c1.058,1.874,2.654,3.954,4.941,5.223
				C28.814,53.882,26.675,55.521,25.299,57.754z" class="color3a312a svgShape"></path><path fill="#f4ff53" d="M25.442,16.429c-0.689,8.179-9.212,9.47-9.212,9.47c7.318,0.344,9.142,9.944,9.142,9.944
				c0.156-6.845,9.422-10.045,9.422-10.045C27.853,25.383,25.442,16.429,25.442,16.429z" class="colord6df58 svgShape"></path><path fill="#3a312a" d="M34.884 24.301c-5.766-.345-7.972-8.186-7.994-8.265-.189-.702-.856-1.166-1.581-1.102-.726.065-1.3.643-1.361 1.368-.578 6.871-7.646 8.067-7.941 8.114-.763.115-1.313.79-1.273 1.561.04.77.657 1.384 1.428 1.421 6.034.284 7.723 8.644 7.738 8.726.136.713.759 1.22 1.473 1.22.041 0 .083-.001.125-.005.765-.063 1.358-.694 1.376-1.461.13-5.709 8.331-8.634 8.412-8.662.676-.234 1.093-.913.996-1.622C36.183 24.886 35.598 24.344 34.884 24.301zM25.299 31.096c-.924-1.885-2.34-3.947-4.446-5.28 1.855-1.041 3.697-2.629 4.87-4.916 1.058 1.874 2.654 3.954 4.941 5.223C28.814 27.225 26.675 28.864 25.299 31.096zM224.87 95.723l-46.213-80.044c-.268-.464-.763-.75-1.299-.75s-1.031.286-1.299.75l-46.214 80.044c-.414.717-.169 1.635.549 2.049.715.414 1.634.169 2.049-.549l44.915-77.794 44.914 77.794c.277.482.782.75 1.3.75.255 0 .513-.065.749-.202C225.039 97.358 225.284 96.44 224.87 95.723z" class="color3a312a svgShape"></path><path fill="#ffbf0b" d="M230.116,76.196h-34.016h-7.63h-63.869c-5.332,0-9.654,4.322-9.654,9.654v45.495
				c0,5.332,4.322,9.654,9.654,9.654h105.515c5.332,0,9.654-4.322,9.654-9.654V85.85C239.77,80.518,235.448,76.196,230.116,76.196z" class="color87796f svgShape"></path><path fill="#3a312a" d="M230.115,74.696H124.601c-6.15,0-11.154,5.004-11.154,11.154v45.496c0,6.15,5.004,11.154,11.154,11.154
				h105.515c6.15,0,11.154-5.004,11.154-11.154V85.85C241.27,79.7,236.266,74.696,230.115,74.696z M238.27,131.346
				c0,4.496-3.658,8.154-8.154,8.154H124.601c-4.496,0-8.154-3.658-8.154-8.154V85.85c0-4.496,3.658-8.154,8.154-8.154h105.515
				c4.496,0,8.154,3.658,8.154,8.154V131.346z" class="color3a312a svgShape"></path><path fill="#f7e3c7" d="M227.291,83.036h-99.866c-2.449,0-4.434,1.985-4.434,4.434v42.255c0,2.449,1.985,4.434,4.434,4.434h99.866
				c2.449,0,4.434-1.985,4.434-4.434V87.47C231.725,85.022,229.74,83.036,227.291,83.036z" class="colorf7e3c7 svgShape"></path><path fill="#3a312a" d="M227.291,81.537h-99.866c-3.271,0-5.934,2.662-5.934,5.934v42.255c0,3.272,2.662,5.934,5.934,5.934h99.866
				c3.271,0,5.934-2.662,5.934-5.934V87.47C233.225,84.198,230.563,81.537,227.291,81.537z M230.225,129.726
				c0,1.618-1.316,2.934-2.934,2.934h-99.866c-1.617,0-2.934-1.316-2.934-2.934V87.47c0-1.618,1.316-2.934,2.934-2.934h99.866
				c1.617,0,2.934,1.316,2.934,2.934V129.726z" class="color3a312a svgShape"></path><path fill="#ffbf0b" d="M177.358,16.429c-7.566,0-13.699,6.133-13.699,13.699c0,7.566,6.133,13.699,13.699,13.699
				c7.566,0,13.7-6.134,13.7-13.699C191.057,22.563,184.924,16.429,177.358,16.429z" class="colord4db56 svgShape"></path><path fill="#3a312a" d="M177.358,14.929c-8.382,0-15.2,6.818-15.2,15.2c0,8.381,6.818,15.199,15.2,15.199
				c8.381,0,15.199-6.818,15.199-15.199C192.558,21.748,185.739,14.929,177.358,14.929z M177.358,42.328
				c-6.728,0-12.2-5.473-12.2-12.199c0-6.727,5.473-12.2,12.2-12.2c6.727,0,12.199,5.473,12.199,12.2
				C189.558,36.855,184.085,42.328,177.358,42.328z" class="color3a312a svgShape"></path><path fill="#ffd86b" d="M177.358,24.531c-3.091,0-5.597,2.506-5.597,5.598c0,3.091,2.506,5.597,5.597,5.597
				c3.092,0,5.598-2.506,5.598-5.597C182.956,27.037,180.449,24.531,177.358,24.531z" class="colorf6e2c6 svgShape"></path><path fill="#3a312a" d="M177.358 23.031c-3.914 0-7.098 3.184-7.098 7.098s3.184 7.098 7.098 7.098c3.913 0 7.097-3.184 7.097-7.098S181.271 23.031 177.358 23.031zM177.358 34.227c-2.26 0-4.098-1.838-4.098-4.098s1.838-4.098 4.098-4.098c2.259 0 4.097 1.838 4.097 4.098S179.617 34.227 177.358 34.227zM150.571 109.275c-.563-.934-1.464-1.716-2.7-2.346-1.238-.631-3.286-1.255-6.144-1.87-1.156-.241-1.887-.501-2.195-.779-.318-.27-.476-.573-.476-.91 0-.462.192-.854.577-1.177.385-.323.958-.484 1.719-.484.924 0 1.648.216 2.172.65.525.433.868 1.126 1.032 2.078l6.165-.361c-.27-2.195-1.114-3.795-2.534-4.801-1.42-1.006-3.482-1.509-6.187-1.509-2.204 0-3.94.277-5.205.83-1.265.554-2.214 1.314-2.844 2.282-.63.967-.945 1.995-.945 3.082 0 1.656.615 3.018 1.847 4.086 1.223 1.069 3.268 1.925 6.137 2.57 1.752.385 2.869.794 3.35 1.227.481.434.722.925.722 1.473 0 .578-.253 1.086-.759 1.523-.505.439-1.225.657-2.159.657-1.251 0-2.214-.428-2.888-1.285-.414-.53-.688-1.299-.823-2.31l-6.223.389c.183 2.137.967 3.899 2.353 5.285 1.386 1.386 3.879 2.079 7.479 2.079 2.051 0 3.749-.296 5.097-.887 1.348-.593 2.397-1.461 3.148-2.607.751-1.145 1.126-2.397 1.126-3.754C151.415 111.253 151.134 110.208 150.571 109.275zM174.44 100.6c-1.91-1.89-4.62-2.83-8.15-2.83-3.43 0-6.12.96-8.04 2.88-1.92 1.93-2.89 4.62-2.89 8.08 0 2.47.49 4.53 1.46 6.18.97 1.64 2.24 2.84 3.81 3.61 1.56.76 3.54 1.14 5.92 1.14 2.35 0 4.31-.44 5.89-1.33 1.57-.88 2.77-2.11 3.61-3.69.83-1.58 1.25-3.61 1.25-6.09C177.3 105.15 176.34 102.5 174.44 100.6zM169.6 113.39c-.77.91-1.86 1.37-3.26 1.37-1.37 0-2.45-.47-3.25-1.4-.79-.93-1.19-2.47-1.19-4.61 0-2.15.4-3.7 1.2-4.63.8-.93 1.86-1.4 3.18-1.4 1.37 0 2.46.46 3.27 1.38.8.92 1.2 2.37 1.2 4.37C170.75 110.83 170.37 112.48 169.6 113.39z" class="color3a312a svgShape"></path><polygon fill="#3a312a" points="188.838 114.083 188.838 98.128 182.297 98.128 182.297 119.295 199.047 119.295 199.047 114.083" class="color3a312a svgShape"></polygon><path fill="#3a312a" d="M222.54,104.54c-0.34-1.29-0.9-2.42-1.67-3.39c-0.77-0.98-1.75-1.72-2.93-2.24
				c-1.17-0.52-2.72-0.78-4.64-0.78h-9.71v21.16h9.71c1.17,0,2.47-0.19,3.9-0.57c1.05-0.28,2.03-0.84,2.95-1.68
				c0.91-0.85,1.63-1.89,2.14-3.14c0.52-1.24,0.77-3,0.77-5.26C223.06,107.2,222.89,105.83,222.54,104.54z M216,112.44
				c-0.32,0.76-0.78,1.29-1.35,1.59c-0.58,0.3-1.55,0.46-2.92,0.46h-1.6v-11.57h1.63c1.69,0,2.9,0.42,3.64,1.24
				c0.73,0.83,1.09,2.37,1.09,4.61C216.49,110.46,216.33,111.69,216,112.44z" class="color3a312a svgShape"></path><path fill="#e0a80b" d="M164.11,142.5v90.68c0,2.7-2.2,4.89-4.89,4.89h20c2.69,0,4.89-2.19,4.89-4.89V142.5H164.11z" class="colord34e5c svgShape"></path></svg></g></svg>