<svg xmlns="http://www.w3.org/2000/svg" xmlns:xlink="http://www.w3.org/1999/xlink" version="1.1" id="Layer_1" x="0px" y="0px" viewBox="0 0 128 128" style="enable-background:new 0 0 128 128;" xml:space="preserve">
<style type="text/css">
	.st0{fill:#ffbf0b;}
	.st1{fill:#ffbf0b;}
	.st2{fill:#F6F7F7;}
	.st3{fill:#ffbf0b;}
	.st4{fill:#ffbf0b;}
	.st5{fill:#ffbf0b;}
	.st6{fill:#0f0c03;}
	.st7{fill:#1c0f1e;}
	.st8{fill:#ffbf0b;}
	.st9{fill:#9c27b0;}
	.st10{fill:#9c27b0;}
	.st11{fill:#ce2121;}
	.st12{fill:#9c27b0;}
	.st13{fill:#9c27b0;}
	.st14{fill:#9c27b0;}
	.st15{fill:#673ab7;}
	.st16{fill:#673ab7;}
	.st17{fill:#9c27b0;}
</style>
<g>
	<g>
		<path class="st0" d="M64.5,82.5c-8.837,0-16,7.163-16,16v12c0,8.837,7.163,16,16,16s16-7.163,16-16v-12    C80.5,89.663,73.337,82.5,64.5,82.5z" fill="#1e1212"/>
		<rect x="9.5" y="1.5" class="st4" width="109" height="60" fill="#1e1212"/>
		<path class="st3" d="M98.5,11.5h-69c0,5.52-4.48,10-10,10v20c5.52,0,10,4.48,10,10c0,0.34-0.02,0.67-0.05,1h69.1    c-0.03-0.33-0.05-0.66-0.05-1c0-5.52,4.48-10,10-10v-20C102.98,21.5,98.5,17.02,98.5,11.5z" fill="#1e1212"/>
		<circle class="st4" cx="64" cy="32" r="20.5" fill="#1e1212"/>
		<path class="st8" d="M64.5,92.5c-1.657,0-3,1.343-3,3v5c0,1.657,1.343,3,3,3s3-1.343,3-3v-5C67.5,93.843,66.157,92.5,64.5,92.5z" fill="#1e1212"/>
	</g>
	<g>
		<path class="st6" d="M118.5,0H9.5C8.672,0,8,0.671,8,1.5v8.476c0,0.829,0.672,1.5,1.5,1.5s1.5-0.671,1.5-1.5V3h106v57H11V17.95    c0-0.829-0.672-1.5-1.5-1.5S8,17.121,8,17.95V61.5C8,62.329,8.672,63,9.5,63h109c0.828,0,1.5-0.671,1.5-1.5v-60    C120,0.671,119.328,0,118.5,0z" fill="#1e1212"/>
		<path class="st7" d="M108.5,20c-4.687,0-8.5-3.813-8.5-8.5c0-0.829-0.672-1.5-1.5-1.5h-69c-0.828,0-1.5,0.671-1.5,1.5    c0,4.687-3.813,8.5-8.5,8.5c-0.828,0-1.5,0.671-1.5,1.5v20c0,0.829,0.672,1.5,1.5,1.5c4.687,0,8.5,3.813,8.5,8.5    c0,0.293-0.018,0.578-0.044,0.863c-0.038,0.42,0.102,0.837,0.386,1.148S29.028,54,29.45,54h69.1c0.422,0,0.824-0.177,1.108-0.489    s0.424-0.729,0.386-1.148C100.018,52.078,100,51.793,100,51.5c0-4.687,3.813-8.5,8.5-8.5c0.828,0,1.5-0.671,1.5-1.5v-20    C110,20.671,109.328,20,108.5,20z M107,40.097c-5.474,0.716-9.748,5.296-9.989,10.903H30.989    C30.748,45.393,26.474,40.813,21,40.097V22.903c5.145-0.673,9.229-4.759,9.902-9.903h66.195c0.673,5.144,4.758,9.229,9.902,9.903    V40.097z" fill="#1e1212"/>
		<path class="st6" d="M64,13c9.063,0,16.902,6.45,18.64,15.337c0.158,0.813,0.942,1.343,1.76,1.185    c0.812-0.159,1.343-0.947,1.184-1.76C83.572,17.47,74.495,10,64,10c-12.131,0-22,9.869-22,22s9.869,22,22,22    c10.486,0,19.562-7.462,21.58-17.742c0.16-0.813-0.37-1.602-1.183-1.761c-0.817-0.165-1.601,0.37-1.761,1.183    C80.894,44.557,73.056,51,64,51c-10.477,0-19-8.523-19-19S53.523,13,64,13z" fill="#1e1212"/>
		<g>
			<path class="st6" d="M65.629,22.063h-3.258c-2.393,0-4.34,1.947-4.34,4.339V32.5c0,0.829,0.672,1.5,1.5,1.5h7.438v4.597     c0,0.738-0.601,1.339-1.34,1.339h-3.258c-0.739,0-1.34-0.601-1.34-1.339v-0.139c0-0.829-0.672-1.5-1.5-1.5s-1.5,0.671-1.5,1.5     v0.139c0,2.393,1.947,4.339,4.34,4.339h3.258c2.393,0,4.34-1.947,4.34-4.339V32.5c0-0.829-0.672-1.5-1.5-1.5h-7.438v-4.597     c0-0.738,0.601-1.339,1.34-1.339h3.258c0.739,0,1.34,0.601,1.34,1.339v0.139c0,0.829,0.672,1.5,1.5,1.5s1.5-0.671,1.5-1.5v-0.139     C69.969,24.01,68.021,22.063,65.629,22.063z" fill="#1e1212"/>
			<path class="st6" d="M64,18.5c-0.828,0-1.5,0.671-1.5,1.5v25c0,0.829,0.672,1.5,1.5,1.5s1.5-0.671,1.5-1.5V20     C65.5,19.171,64.828,18.5,64,18.5z" fill="#1e1212"/>
		</g>
		<path class="st6" d="M58.5,72h-24c-2.481,0-4.5-2.019-4.5-4.5s2.019-4.5,4.5-4.5h25c0.828,0,1.5-0.671,1.5-1.5S60.328,60,59.5,60    h-25c-4.136,0-7.5,3.364-7.5,7.5s3.364,7.5,7.5,7.5h24c2.481,0,4.5,2.019,4.5,4.5v3c0,0.829,0.672,1.5,1.5,1.5s1.5-0.671,1.5-1.5    v-3C66,75.364,62.636,72,58.5,72z" fill="#1e1212"/>
		<path class="st6" d="M64.5,81c-9.554,0-17.4,7.774-17.492,17.331c-0.004,0.407,0.158,0.798,0.448,1.084    c0.291,0.285,0.683,0.442,1.093,0.43c0.062-0.002,0.12-0.007,0.18-0.014c0.773-0.06,1.383-0.707,1.383-1.496    c0-0.179-0.031-0.35-0.089-0.509C50.378,90.154,56.764,84,64.5,84C72.495,84,79,90.505,79,98.5v12c0,7.995-6.505,14.5-14.5,14.5    S50,118.495,50,110.5v-3.597c0.072-0.175,0.111-0.367,0.111-0.568c0-0.791-0.612-1.439-1.39-1.496    c-0.061-0.007-0.138-0.014-0.185-0.015c-0.384-0.017-0.794,0.143-1.084,0.426c-0.29,0.282-0.453,0.669-0.453,1.074v4.176    c0,9.649,7.851,17.5,17.5,17.5S82,120.149,82,110.5v-12C82,88.851,74.149,81,64.5,81z" fill="#1e1212"/>
		<path class="st7" d="M64.5,91c-2.481,0-4.5,2.019-4.5,4.5v5c0,2.481,2.019,4.5,4.5,4.5s4.5-2.019,4.5-4.5v-5    C69,93.019,66.981,91,64.5,91z M66,100.5c0,0.827-0.673,1.5-1.5,1.5s-1.5-0.673-1.5-1.5v-5c0-0.827,0.673-1.5,1.5-1.5    s1.5,0.673,1.5,1.5V100.5z" fill="#1e1212"/>
		<path class="st7" d="M93.5,99h-7c-0.828,0-1.5,0.671-1.5,1.5s0.672,1.5,1.5,1.5h7c0.828,0,1.5-0.671,1.5-1.5S94.328,99,93.5,99z" fill="#1e1212"/>
		<path class="st7" d="M86.668,79.252l-6,4c-0.689,0.459-0.876,1.391-0.416,2.08C80.541,85.766,81.017,86,81.501,86    c0.286,0,0.575-0.082,0.831-0.252l6-4c0.689-0.459,0.876-1.391,0.416-2.08C88.288,78.978,87.355,78.792,86.668,79.252z" fill="#1e1212"/>
		<path class="st7" d="M42.5,99h-7c-0.828,0-1.5,0.671-1.5,1.5s0.672,1.5,1.5,1.5h7c0.828,0,1.5-0.671,1.5-1.5S43.328,99,42.5,99z" fill="#1e1212"/>
		<path class="st7" d="M48.332,83.252l-6-4c-0.689-0.459-1.62-0.274-2.08,0.416c-0.46,0.689-0.273,1.621,0.416,2.08l6,4    C46.924,85.918,47.213,86,47.499,86c0.484,0,0.96-0.234,1.249-0.668C49.208,84.643,49.021,83.711,48.332,83.252z" fill="#1e1212"/>
		<path class="st7" d="M64.5,88c-0.828,0-1.5,0.671-1.5,1.5v3c0,0.829,0.672,1.5,1.5,1.5s1.5-0.671,1.5-1.5v-3    C66,88.671,65.328,88,64.5,88z" fill="#1e1212"/>
	</g>
</g>
<g>
</g>
</svg>