<svg id="SvgjsSvg1001" width="288" height="288" xmlns="http://www.w3.org/2000/svg" version="1.1" xmlns:xlink="http://www.w3.org/1999/xlink" xmlns:svgjs="http://svgjs.com/svgjs"><defs id="SvgjsDefs1002"></defs><g id="SvgjsG1008"><svg xmlns="http://www.w3.org/2000/svg" viewBox="0 0 96 96" width="288" height="288"><g data-name="5.Web Server" fill="#000000" class="color000 svgShape"><path fill="#eaba56" d="M95,11V82a3,3,0,0,1-3,3H4a3,3,0,0,1-3-3V11Z" class="colorf8fafd svgShape"></path><path fill="#d49e08" d="M95 4v7H1V4A3 3 0 014 1H92A3 3 0 0195 4zM90 55V35a3 3 0 00-3-3H17a3 3 0 00-3 3V55a3 3 0 003 3h8l-5 5H17a3 3 0 00-3 3V85H90V66a3 3 0 00-3-3H84l-5-5h8A3 3 0 0090 55z" class="colorc3d4ef svgShape"></path><path fill="#ffbf0b" d="M86,66V86a3,3,0,0,1-3,3H13a3,3,0,0,1-3-3V66a3,3,0,0,1,3-3H83A3,3,0,0,1,86,66Z" class="colore5eefd svgShape"></path><polygon fill="#ffbf0b" points="80 63 16 63 21 58 75 58 80 63" class="colorebf4ff svgShape"></polygon><polygon fill="#ffbf0b" points="81 95 15 95 21 89 75 89 81 95" class="colorebf4ff svgShape"></polygon><polygon fill="#d49e08" points="75 58 21 58 19 60 77 60 75 58" class="colorc3d4ef svgShape"></polygon><polygon fill="#d49e08" points="75 89 21 89 19 91 77 91 75 89" class="colorc3d4ef svgShape"></polygon><circle cx="40" cy="76" r="6" fill="#ffffff" class="colorfff svgShape"></circle><circle cx="22" cy="76" r="6" fill="#ffffff" class="colorfff svgShape"></circle><path fill="#ffbf0b" d="M86,35V55a3,3,0,0,1-3,3H13a3,3,0,0,1-3-3V35a3,3,0,0,1,3-3H83A3,3,0,0,1,86,35Z" class="colore5eefd svgShape"></path><circle cx="40" cy="45" r="6" fill="#ffffff" class="colorfff svgShape"></circle><circle cx="22" cy="45" r="6" fill="#ffffff" class="colorfff svgShape"></circle><circle cx="72" cy="35" r="17" fill="#f7bb1a" class="colora9ebc8 svgShape"></circle><path fill="#283d54" d="M95,21a1,1,0,0,0,1-1V4a4,4,0,0,0-4-4H4A4,4,0,0,0,0,4V82a4,4,0,0,0,4,4H9a4,4,0,0,0,4,4h5.586l-4,4H10a1,1,0,0,0,0,2H32a1,1,0,0,0,0-2H17.414l4-4H74.586l4,4H37a1,1,0,0,0,0,2H86a1,1,0,0,0,0-2H81.414l-4-4H83a4,4,0,0,0,4-4h5a4,4,0,0,0,4-4V26a1,1,0,0,0-2,0V82a2,2,0,0,1-2,2H87V66a4,4,0,0,0-4-4H80.414l-3-3H83a4,4,0,0,0,4-4V50a1,1,0,0,0-2,0v5a2,2,0,0,1-2,2H13a2,2,0,0,1-2-2V35a2,2,0,0,1,2-2H50a1,1,0,0,0,0-2H13a4,4,0,0,0-4,4V55a4,4,0,0,0,4,4h5.586l-3,3H13a4,4,0,0,0-4,4V84H4a2,2,0,0,1-2-2V4A2,2,0,0,1,4,2H92a2,2,0,0,1,2,2V20A1,1,0,0,0,95,21ZM21.414,59H74.586l3,3H18.414ZM11,66a2,2,0,0,1,2-2H83a2,2,0,0,1,2,2V86a2,2,0,0,1-2,2H13a2,2,0,0,1-2-2Z" class="color283d54 svgShape"></path><path fill="#283d54" d="M92 11a1 1 0 00-1-1H5a1 1 0 000 2H91A1 1 0 0092 11zM8 7A1 1 0 008 5H6A1 1 0 006 7zM15 7a1 1 0 000-2H13a1 1 0 000 2zM89 7a1 1 0 000-2H23a1 1 0 000 2zM22 83a7 7 0 10-7-7A7.008 7.008 0 0022 83zm0-12a5 5 0 11-5 5A5.006 5.006 0 0122 71zM40 83a7 7 0 10-7-7A7.008 7.008 0 0040 83zm0-12a5 5 0 11-5 5A5.006 5.006 0 0140 71z" class="color283d54 svgShape"></path><path fill="#283d54" d="M21 77h2a1 1 0 000-2H21a1 1 0 000 2zM39 77h2a1 1 0 000-2H39a1 1 0 000 2zM53 80a1 1 0 001-1V73a1 1 0 00-2 0v6A1 1 0 0053 80zM59 80a1 1 0 001-1V73a1 1 0 00-2 0v6A1 1 0 0059 80zM65 80a1 1 0 001-1V73a1 1 0 00-2 0v6A1 1 0 0065 80zM71 80a1 1 0 001-1V73a1 1 0 00-2 0v6A1 1 0 0071 80zM77 80a1 1 0 001-1V73a1 1 0 00-2 0v6A1 1 0 0077 80zM15 45a7 7 0 107-7A7.008 7.008 0 0015 45zm12 0a5 5 0 11-5-5A5.006 5.006 0 0127 45zM33 45a7 7 0 107-7A7.008 7.008 0 0033 45zm12 0a5 5 0 11-5-5A5.006 5.006 0 0145 45z" class="color283d54 svgShape"></path><path fill="#283d54" d="M20 45a1 1 0 001 1h2a1 1 0 000-2H21A1 1 0 0020 45zM38 45a1 1 0 001 1h2a1 1 0 000-2H39A1 1 0 0038 45zM54 35A18 18 0 1072 17 18.021 18.021 0 0054 35zm34 0A16 16 0 1172 19 16.019 16.019 0 0188 35z" class="color283d54 svgShape"></path><path fill="#283d54" d="M65.707,38.293a1,1,0,0,0-1.414,1.414l3,3a1,1,0,0,0,1.414,0l12-12a1,1,0,0,0-1.414-1.414L68,40.586Z" class="color283d54 svgShape"></path></g></svg></g></svg>