<?xml version="1.0" encoding="iso-8859-1"?>
<!-- Generator: Adobe Illustrator 19.0.0, SVG Export Plug-In . SVG Version: 6.00 Build 0)  -->
<svg version="1.1" id="Layer_1" xmlns="http://www.w3.org/2000/svg" xmlns:xlink="http://www.w3.org/1999/xlink" x="0px" y="0px"
	 viewBox="0 0 512 512" style="enable-background:new 0 0 512 512;" xml:space="preserve">
<rect x="9.253" y="83.277" style="fill:#95D5A7;" width="493.494" height="345.446"/>
<g>
	<polygon style="fill:#80CB93;" points="502.747,317.687 453.398,330.024 453.398,83.277 502.747,83.277 	"/>
	<rect x="9.253" y="317.687" style="fill:#80CB93;" width="493.494" height="111.036"/>
</g>
<rect x="453.398" y="317.687" style="fill:#6DC180;" width="49.349" height="111.036"/>
<g>
	<path style="fill:#95D5A7;" d="M191.229,400.964H43.181c-5.11,0-9.253-4.143-9.253-9.253c0-5.11,4.143-9.253,9.253-9.253h148.048
		c5.11,0,9.253,4.143,9.253,9.253C200.482,396.821,196.339,400.964,191.229,400.964z"/>
	<path style="fill:#95D5A7;" d="M191.229,363.952H43.181c-5.11,0-9.253-4.143-9.253-9.253c0-5.11,4.143-9.253,9.253-9.253h148.048
		c5.11,0,9.253,4.143,9.253,9.253C200.482,359.809,196.339,363.952,191.229,363.952z"/>
	<path style="fill:#95D5A7;" d="M468.819,400.964H320.771c-5.11,0-9.253-4.143-9.253-9.253c0-5.11,4.143-9.253,9.253-9.253h148.048
		c5.11,0,9.253,4.143,9.253,9.253C478.072,396.821,473.929,400.964,468.819,400.964z"/>
	<path style="fill:#95D5A7;" d="M468.819,363.952H320.771c-5.11,0-9.253-4.143-9.253-9.253c0-5.11,4.143-9.253,9.253-9.253h148.048
		c5.11,0,9.253,4.143,9.253,9.253C478.072,359.809,473.929,363.952,468.819,363.952z"/>
</g>
<rect x="157.301" y="83.277" style="fill:#EDEDED;" width="197.398" height="345.446"/>
<rect x="157.301" y="317.687" style="fill:#D8D8DA;" width="197.398" height="111.036"/>
<g>
	<circle style="fill:#EDEDED;" cx="83.277" cy="200.482" r="24.675"/>
	<circle style="fill:#EDEDED;" cx="428.723" cy="200.482" r="24.675"/>
</g>
<g>
	<path style="fill:#2E2D31;" d="M502.747,123.372c-5.11,0-9.253,4.143-9.253,9.253v0.001v175.807H363.952V92.53h138.795
		c5.11,0,9.253-4.143,9.253-9.253c0-5.11-4.143-9.253-9.253-9.253H9.253C4.143,74.024,0,78.167,0,83.277v345.446
		c0,5.11,4.143,9.253,9.253,9.253h493.494c5.11,0,9.253-4.143,9.253-9.253V132.627v-0.001
		C512,127.515,507.857,123.372,502.747,123.372z M18.506,92.53h138.795h188.145v215.904H166.554V132.627
		c0-5.11-4.143-9.253-9.253-9.253s-9.253,4.143-9.253,9.253v175.807H18.506V92.53z M18.506,326.94h129.542v92.53H18.506V326.94z
		 M166.554,419.47v-92.53h178.892v92.53H166.554z M363.952,419.47v-92.53h129.542v92.53H363.952z"/>
	<path style="fill:#2E2D31;" d="M256,240.578c-8.504,0-15.422-6.918-15.422-15.422c0-5.11-4.143-9.253-9.253-9.253
		c-5.11,0-9.253,4.143-9.253,9.253c0,15.499,10.452,28.596,24.675,32.635v4.377c0,5.11,4.143,9.253,9.253,9.253
		c5.11,0,9.253-4.143,9.253-9.253v-4.377c14.223-4.039,24.675-17.135,24.675-32.635c0-18.708-15.219-33.928-33.928-33.928
		c-8.504,0-15.422-6.918-15.422-15.422c0-8.504,6.918-15.422,15.422-15.422c8.504,0,15.422,6.918,15.422,15.422
		c0,5.11,4.143,9.253,9.253,9.253c5.11,0,9.253-4.143,9.253-9.253c0-15.499-10.452-28.596-24.675-32.635v-4.377
		c0-5.11-4.143-9.253-9.253-9.253c-5.11,0-9.253,4.143-9.253,9.253v4.377c-14.223,4.039-24.675,17.134-24.675,32.635
		c0,18.708,15.219,33.928,33.928,33.928c8.504,0,15.422,6.918,15.422,15.422S264.504,240.578,256,240.578z"/>
</g>
<g>
</g>
<g>
</g>
<g>
</g>
<g>
</g>
<g>
</g>
<g>
</g>
<g>
</g>
<g>
</g>
<g>
</g>
<g>
</g>
<g>
</g>
<g>
</g>
<g>
</g>
<g>
</g>
<g>
</g>
</svg>
